<?xml version="1.0" encoding="utf-8"?>
<!DOCTYPE svg PUBLIC "-//W3C//DTD SVG 20010904//EN" "http://www.w3.org/TR/2001/REC-SVG-20010904/DTD/svg10.dtd">
<svg version="1.0" xmlns="http://www.w3.org/2000/svg" width="2002pt" height="1880pt" viewBox="0 0 2002 1880" preserveAspectRatio="xMidYMid meet">
<g fill="#C60909FE">
<path d="M 625.75 1860.01 C 618.19 1852.24 612.00 1845.72 612.00 1845.51 C 612.00 1844.55 598.30 1831.23 596.75 1830.68 C 595.79 1830.34 595.00 1829.15 595.00 1828.03 C 595.00 1826.91 594.36 1826.00 593.58 1826.00 C 592.00 1826.00 584.03 1818.09 584.01 1816.50 C 584.00 1815.95 582.68 1814.62 581.07 1813.54 C 579.46 1812.46 578.36 1811.22 578.63 1810.79 C 578.90 1810.36 578.18 1810.00 577.04 1810.00 C 575.74 1810.00 574.50 1808.97 573.73 1807.26 C 573.05 1805.76 569.80 1801.94 566.50 1798.79 C 563.20 1795.63 559.33 1791.92 557.89 1790.53 C 556.45 1789.14 554.82 1788.00 554.25 1788.00 C 553.68 1788.00 552.93 1786.88 552.59 1785.50 C 552.24 1784.12 551.40 1783.00 550.70 1783.00 C 550.01 1783.00 548.67 1782.10 547.73 1781.00 C 546.79 1779.90 546.27 1779.00 546.57 1779.00 C 546.87 1779.00 545.40 1777.43 543.31 1775.50 C 541.21 1773.58 539.24 1772.01 538.92 1772.00 C 538.60 1772.00 537.76 1770.91 537.05 1769.58 C 536.33 1768.26 534.91 1766.95 533.88 1766.68 C 532.85 1766.41 531.70 1765.36 531.33 1764.34 C 530.31 1761.61 524.13 1754.85 519.78 1751.73 C 518.43 1750.75 516.72 1748.84 515.99 1747.48 C 515.26 1746.12 514.06 1745.00 513.33 1745.00 C 512.60 1745.00 512.00 1744.60 512.00 1744.11 C 512.00 1743.62 507.66 1739.00 502.35 1733.86 C 490.17 1722.03 489.87 1721.72 487.70 1718.60 C 486.72 1717.17 485.37 1715.98 484.70 1715.95 C 484.04 1715.93 482.15 1714.15 480.50 1712.00 C 478.85 1709.85 477.13 1708.07 476.68 1708.05 C 475.55 1707.98 473.00 1705.34 473.00 1704.23 C 473.00 1703.73 471.88 1702.81 470.50 1702.18 C 469.12 1701.56 468.00 1700.56 468.00 1699.98 C 468.00 1699.39 464.46 1695.33 460.14 1690.96 C 455.81 1686.58 452.48 1683.00 452.72 1683.00 C 452.97 1683.00 451.99 1681.99 450.55 1680.75 C 442.49 1673.83 401.66 1632.05 402.84 1631.94 C 403.20 1631.90 402.46 1631.46 401.19 1630.95 C 399.91 1630.43 399.15 1629.56 399.49 1629.01 C 399.84 1628.45 399.63 1628.00 399.02 1628.00 C 397.83 1628.00 384.69 1614.86 382.27 1611.25 C 381.45 1610.01 380.15 1609.00 379.38 1609.00 C 378.62 1609.00 378.00 1608.58 378.00 1608.07 C 378.00 1607.56 366.64 1595.66 352.75 1581.64 C 338.86 1567.61 325.93 1554.33 324.00 1552.11 C 322.07 1549.90 319.94 1548.07 319.25 1548.05 C 318.56 1548.02 318.00 1547.63 318.00 1547.17 C 318.00 1546.71 315.82 1544.13 313.15 1541.42 C 310.49 1538.71 307.77 1535.49 307.12 1534.25 C 306.46 1533.01 305.26 1532.00 304.44 1532.00 C 303.63 1532.00 302.44 1530.88 301.82 1529.50 C 301.19 1528.12 300.23 1527.00 299.68 1527.00 C 298.55 1527.00 290.00 1517.96 290.00 1516.77 C 290.00 1516.35 289.32 1516.00 288.48 1516.00 C 287.64 1516.00 286.45 1514.88 285.83 1513.52 C 285.21 1512.15 283.93 1510.80 283.00 1510.50 C 282.07 1510.20 280.79 1508.85 280.17 1507.48 C 279.55 1506.12 278.41 1505.00 277.63 1505.00 C 276.27 1505.00 274.51 1502.31 274.84 1500.75 C 274.93 1500.34 274.44 1500.00 273.75 1499.99 C 273.06 1499.99 269.00 1496.39 264.73 1491.99 C 260.45 1487.60 256.53 1484.00 256.01 1484.00 C 255.49 1484.00 254.59 1483.10 254.00 1482.01 C 253.42 1480.91 250.70 1477.75 247.97 1474.97 C 245.24 1472.19 243.00 1469.49 243.00 1468.96 C 243.00 1468.43 242.56 1468.00 242.03 1468.00 C 241.50 1468.00 236.12 1463.05 230.09 1457.00 C 224.05 1450.95 218.65 1446.00 218.08 1446.00 C 217.51 1446.00 216.76 1444.88 216.41 1443.50 C 216.07 1442.12 215.30 1441.00 214.72 1441.00 C 213.57 1441.00 206.02 1433.32 202.10 1428.16 C 200.78 1426.42 199.11 1425.00 198.39 1425.00 C 197.66 1425.00 196.65 1424.21 196.13 1423.24 C 195.34 1421.77 190.58 1416.16 187.11 1412.62 C 185.15 1410.62 175.16 1400.66 174.08 1399.62 C 163.16 1389.20 154.00 1379.37 154.00 1378.06 C 154.00 1377.48 153.32 1377.00 152.50 1377.00 C 151.68 1377.00 151.00 1376.30 151.00 1375.44 C 151.00 1374.58 150.59 1374.13 150.09 1374.44 C 149.59 1374.75 145.59 1371.29 141.20 1366.75 C 122.05 1346.96 117.00 1341.56 117.00 1340.87 C 117.00 1340.47 116.21 1339.88 115.25 1339.57 C 114.29 1339.26 112.73 1337.65 111.80 1336.00 C 110.86 1334.35 109.00 1332.50 107.66 1331.89 C 106.32 1331.28 104.73 1329.70 104.13 1328.39 C 103.53 1327.08 102.61 1326.00 102.08 1326.00 C 101.55 1326.00 98.73 1323.45 95.81 1320.34 C 87.35 1311.32 85.97 1310.00 84.98 1310.00 C 84.47 1310.00 83.40 1308.76 82.61 1307.25 C 81.82 1305.74 79.00 1302.40 76.34 1299.84 C 61.24 1285.29 39.00 1262.69 39.00 1261.90 C 39.00 1260.72 33.00 1255.22 30.97 1254.53 C 30.12 1254.24 28.63 1252.64 27.64 1250.97 C 25.56 1247.45 21.31 1243.00 20.02 1243.00 C 19.53 1243.00 18.86 1242.12 18.52 1241.05 C 18.18 1239.98 17.02 1238.82 15.95 1238.48 C 14.88 1238.14 13.74 1236.81 13.42 1235.53 C 13.09 1234.24 11.97 1232.96 10.92 1232.69 C 8.63 1232.09 8.38 1228.76 10.50 1227.00 C 12.37 1225.44 18.99 1226.95 26.09 1230.55 C 28.75 1231.90 31.57 1233.00 32.34 1233.00 C 33.12 1233.00 34.25 1233.60 34.86 1234.34 C 35.47 1235.07 37.89 1236.24 40.24 1236.94 C 42.58 1237.64 47.60 1239.52 51.38 1241.11 C 55.16 1242.70 58.88 1244.00 59.63 1244.00 C 60.38 1244.00 61.00 1244.41 61.00 1244.92 C 61.00 1245.42 63.14 1246.59 65.75 1247.52 C 74.18 1250.52 82.46 1254.12 84.00 1255.45 C 84.83 1256.16 87.30 1257.29 89.50 1257.95 C 93.05 1259.03 102.93 1262.89 111.50 1266.57 C 113.15 1267.27 116.30 1268.58 118.50 1269.47 C 120.70 1270.37 123.28 1271.53 124.24 1272.05 C 125.19 1272.57 126.50 1273.00 127.14 1273.00 C 128.33 1273.00 144.26 1279.92 149.15 1282.57 C 150.61 1283.36 152.45 1284.00 153.23 1284.00 C 154.02 1284.00 156.87 1285.15 159.58 1286.55 C 162.29 1287.96 167.88 1290.45 172.00 1292.10 C 176.12 1293.75 180.93 1295.76 182.68 1296.56 C 188.10 1299.06 200.25 1304.05 205.52 1305.94 C 208.28 1306.93 212.78 1308.87 215.52 1310.26 C 218.26 1311.64 224.10 1314.01 228.50 1315.52 C 232.90 1317.02 238.69 1319.36 241.38 1320.71 C 244.06 1322.06 250.13 1324.66 254.88 1326.50 C 259.62 1328.34 265.76 1330.95 268.52 1332.31 C 271.28 1333.67 275.44 1335.35 277.78 1336.05 C 280.11 1336.75 282.52 1337.93 283.13 1338.66 C 283.75 1339.40 284.80 1340.00 285.47 1340.00 C 287.04 1340.00 293.03 1342.89 295.05 1344.62 C 295.90 1345.35 299.53 1346.56 303.12 1347.31 C 306.70 1348.06 312.76 1350.23 316.57 1352.12 C 320.38 1354.01 326.20 1356.42 329.50 1357.48 C 332.80 1358.54 336.93 1360.44 338.68 1361.70 C 340.43 1362.97 342.71 1364.00 343.73 1364.00 C 344.76 1364.00 346.03 1364.39 346.55 1364.88 C 347.07 1365.36 349.94 1366.55 352.93 1367.52 C 355.92 1368.49 360.87 1370.49 363.93 1371.98 C 366.99 1373.46 371.07 1375.28 373.00 1376.03 C 374.93 1376.77 378.16 1378.41 380.20 1379.67 C 382.23 1380.93 385.76 1382.26 388.04 1382.62 C 390.32 1382.99 393.50 1384.39 395.10 1385.74 C 399.25 1389.23 405.15 1389.85 407.90 1387.10 L 410.04 1384.96 L 409.98 1205.53 C 409.94 1081.69 409.60 1025.15 408.87 1023.04 C 408.13 1020.94 407.14 1019.99 405.65 1019.98 C 404.47 1019.96 320.93 1019.92 220.00 1019.89 C 92.88 1019.85 32.82 1020.17 24.51 1020.94 C 16.35 1021.70 12.41 1021.72 12.18 1021.03 C 11.99 1020.46 10.86 1019.99 9.67 1019.98 C 4.26 1019.95 4.64 1032.72 4.18 837.65 C 3.94 738.38 4.01 656.10 4.34 654.80 C 5.01 652.12 7.73 649.05 17.02 640.50 C 27.42 630.93 50.48 609.23 59.80 600.25 C 64.51 595.71 68.72 592.00 69.17 592.00 C 69.62 592.00 74.95 587.16 81.00 581.25 C 87.06 575.34 95.22 567.58 99.14 564.00 C 103.06 560.42 108.08 555.81 110.30 553.75 C 112.51 551.69 114.53 550.00 114.79 550.00 C 115.04 550.00 118.00 547.19 121.37 543.75 C 127.50 537.50 143.28 522.82 148.00 518.97 C 153.18 514.76 161.36 507.43 162.90 505.63 C 166.39 501.54 183.52 485.00 184.26 485.00 C 184.69 485.00 187.43 482.64 190.34 479.75 C 193.25 476.86 197.56 472.93 199.90 471.00 C 204.30 467.39 208.30 463.60 211.11 460.36 C 212.00 459.34 214.93 456.53 217.61 454.13 C 220.30 451.73 223.74 448.66 225.25 447.30 C 226.76 445.94 228.00 444.42 228.00 443.92 C 228.00 443.41 228.65 443.00 229.45 443.00 C 230.25 443.00 231.26 442.40 231.70 441.66 C 232.14 440.92 233.80 439.48 235.38 438.46 L 238.26 436.60 L 240.63 439.36 L 243.00 442.11 L 243.00 617.36 C 243.00 752.32 243.28 792.88 244.20 793.80 C 245.11 794.71 265.12 795.00 328.14 795.00 L 410.89 795.00 L 412.40 792.84 C 413.74 790.93 413.92 756.87 413.99 493.59 C 414.05 228.85 414.34 190.32 416.27 188.40 C 416.51 188.15 419.18 186.05 422.21 183.73 C 434.60 174.19 441.10 168.68 442.06 166.89 C 442.62 165.85 443.69 165.00 444.45 165.00 C 445.21 165.00 445.98 164.66 446.17 164.24 C 446.35 163.83 448.52 161.92 451.00 160.01 C 453.48 158.10 457.07 155.07 459.00 153.28 C 460.93 151.48 462.82 150.01 463.21 150.01 C 463.60 150.00 464.95 148.92 466.21 147.60 C 470.20 143.40 482.42 134.00 484.62 133.41 C 485.79 133.10 487.28 131.87 487.94 130.67 C 488.60 129.48 491.41 126.70 494.19 124.50 C 498.77 120.86 508.99 112.52 518.00 105.06 C 519.92 103.47 523.30 100.76 525.50 99.05 C 527.70 97.34 530.78 94.94 532.35 93.72 C 533.92 92.50 537.90 88.91 541.18 85.75 C 544.46 82.59 547.71 80.00 548.40 80.00 C 549.09 80.00 550.74 78.82 552.08 77.38 C 553.41 75.94 557.90 72.16 562.06 68.99 C 566.21 65.81 571.61 61.31 574.06 58.98 C 576.50 56.66 580.38 53.54 582.67 52.06 C 584.96 50.57 588.88 47.25 591.38 44.68 C 593.88 42.10 596.66 40.00 597.56 40.00 C 598.46 40.00 601.07 38.07 603.35 35.72 C 605.63 33.37 608.98 30.33 610.80 28.97 C 612.61 27.61 615.39 25.38 616.98 24.00 C 618.57 22.62 621.48 20.15 623.46 18.50 C 625.43 16.85 628.39 14.26 630.02 12.75 C 631.65 11.24 633.63 10.00 634.41 10.00 C 635.20 10.00 637.18 8.88 638.82 7.50 C 640.45 6.13 642.71 5.00 643.84 5.00 C 646.18 5.00 651.53 7.96 657.83 12.72 C 660.21 14.53 662.62 16.00 663.18 16.00 C 663.75 16.00 665.93 17.36 668.04 19.03 C 673.27 23.17 681.80 29.00 682.64 29.00 C 683.01 29.00 685.61 30.72 688.41 32.83 C 691.21 34.93 695.52 37.84 698.00 39.29 C 700.48 40.74 704.59 43.63 707.14 45.71 C 711.61 49.36 714.05 50.97 722.23 55.67 C 724.31 56.86 727.69 59.14 729.75 60.73 C 731.81 62.32 737.55 66.29 742.50 69.56 C 747.45 72.82 752.40 76.32 753.50 77.34 C 754.60 78.35 757.65 80.28 760.29 81.62 C 762.92 82.97 766.74 85.58 768.79 87.42 C 770.83 89.26 773.92 91.61 775.66 92.63 C 785.98 98.72 799.85 107.59 802.00 109.46 C 803.38 110.67 806.98 113.16 810.00 115.00 C 813.02 116.85 816.40 119.13 817.50 120.08 C 818.60 121.04 821.38 122.79 823.68 123.97 C 825.98 125.16 828.41 126.78 829.07 127.58 C 829.73 128.38 837.98 134.16 847.39 140.42 C 856.80 146.68 865.59 152.98 866.92 154.40 C 868.26 155.83 870.06 157.01 870.92 157.03 C 871.79 157.05 874.30 158.39 876.50 160.00 C 878.70 161.62 883.16 164.70 886.41 166.86 C 892.28 170.76 895.45 173.14 901.39 178.11 C 903.10 179.54 906.08 181.23 908.00 181.85 C 909.93 182.48 913.97 185.02 916.99 187.50 C 920.01 189.97 922.90 192.00 923.40 192.00 C 923.91 192.00 926.61 193.73 929.42 195.85 C 932.22 197.96 935.86 200.40 937.51 201.25 C 939.15 202.11 941.59 203.98 942.92 205.40 C 944.26 206.83 945.86 208.00 946.49 208.00 C 947.12 208.00 949.41 209.49 951.57 211.31 C 953.73 213.13 957.19 215.64 959.25 216.89 C 961.31 218.14 963.00 219.51 963.00 219.93 C 963.00 220.35 964.86 221.53 967.12 222.56 C 969.39 223.58 972.88 225.67 974.87 227.20 C 976.87 228.72 978.95 230.32 979.50 230.74 C 980.05 231.16 981.85 232.16 983.50 232.98 C 985.15 233.79 988.98 236.26 992.00 238.48 C 995.02 240.69 999.08 243.36 1001.00 244.42 C 1004.59 246.39 1007.60 248.60 1014.39 254.26 C 1016.53 256.04 1019.88 258.29 1021.84 259.26 C 1023.79 260.23 1025.64 261.37 1025.95 261.81 C 1026.25 262.25 1028.30 263.68 1030.50 264.99 C 1032.70 266.30 1036.97 269.25 1040.00 271.54 C 1043.03 273.83 1046.85 276.41 1048.50 277.27 C 1050.15 278.13 1053.04 280.22 1054.93 281.91 C 1056.82 283.61 1058.78 285.00 1059.29 285.00 C 1060.12 285.00 1063.61 287.41 1076.00 296.52 C 1081.69 300.71 1086.16 303.65 1092.00 307.06 C 1097.37 310.20 1104.62 315.13 1119.47 325.75 C 1123.51 328.64 1127.09 331.00 1127.43 331.00 C 1128.69 331.00 1136.57 336.58 1138.28 338.69 C 1139.25 339.90 1141.05 341.18 1142.28 341.54 C 1143.50 341.91 1146.08 343.43 1148.00 344.92 C 1149.92 346.41 1155.21 350.04 1159.75 352.98 C 1164.29 355.93 1168.00 358.73 1168.00 359.22 C 1168.00 359.71 1169.94 360.97 1172.31 362.02 C 1174.68 363.07 1177.45 364.84 1178.47 365.96 C 1179.48 367.08 1180.69 368.00 1181.16 368.00 C 1181.63 368.00 1183.88 369.35 1186.16 371.00 C 1188.44 372.65 1190.66 374.00 1191.11 374.00 C 1191.55 374.00 1193.85 375.84 1196.21 378.08 C 1198.57 380.33 1201.96 382.81 1203.75 383.59 C 1205.54 384.38 1207.00 385.38 1207.00 385.81 C 1207.00 386.25 1208.91 387.56 1211.25 388.73 C 1213.59 389.90 1219.33 393.56 1224.00 396.86 C 1228.67 400.16 1237.67 406.37 1244.00 410.66 C 1250.33 414.95 1259.21 421.17 1263.74 424.48 C 1274.16 432.08 1281.88 437.36 1294.50 445.50 C 1309.25 455.00 1313.58 458.04 1319.09 462.75 C 1321.83 465.09 1324.66 467.00 1325.38 467.00 C 1326.10 467.00 1327.47 467.87 1328.43 468.93 C 1329.39 469.98 1332.50 472.00 1335.34 473.39 C 1338.18 474.79 1341.68 477.19 1343.11 478.73 C 1344.55 480.27 1348.03 482.61 1350.85 483.93 C 1353.66 485.25 1356.20 487.04 1356.48 487.91 C 1356.76 488.79 1359.35 490.74 1362.24 492.26 C 1365.13 493.78 1370.61 497.38 1374.41 500.26 C 1378.21 503.14 1382.03 505.95 1382.91 506.50 C 1383.78 507.05 1386.30 508.88 1388.50 510.56 C 1390.70 512.25 1395.20 515.31 1398.50 517.37 C 1401.80 519.43 1406.16 522.33 1408.19 523.81 C 1410.22 525.29 1414.49 528.28 1417.69 530.44 C 1420.89 532.61 1426.48 536.55 1430.12 539.19 C 1433.76 541.84 1437.14 544.02 1437.62 544.04 C 1438.11 544.06 1440.06 545.41 1441.96 547.04 C 1443.87 548.67 1445.83 550.00 1446.32 550.00 C 1446.82 550.00 1448.64 551.15 1450.36 552.55 C 1456.42 557.48 1471.54 568.04 1474.99 569.76 C 1476.91 570.72 1479.39 572.40 1480.49 573.51 C 1482.56 575.58 1496.98 585.57 1510.00 593.96 C 1510.83 594.49 1516.61 598.56 1522.85 603.01 C 1529.09 607.46 1536.06 612.25 1538.35 613.67 C 1540.63 615.08 1543.67 617.33 1545.10 618.67 C 1546.54 620.00 1549.59 622.10 1551.89 623.33 C 1555.97 625.51 1559.24 627.87 1570.73 636.89 C 1573.80 639.31 1579.51 643.08 1583.41 645.28 C 1587.31 647.48 1590.72 649.60 1591.00 649.99 C 1591.28 650.38 1594.65 652.86 1598.50 655.52 C 1604.69 659.78 1608.71 662.75 1612.71 666.02 C 1613.37 666.56 1614.33 667.00 1614.83 667.00 C 1615.33 667.00 1617.49 668.80 1619.62 671.00 C 1621.75 673.20 1624.08 675.00 1624.79 675.00 C 1626.28 675.00 1630.70 677.74 1633.18 680.20 C 1634.12 681.13 1636.38 682.64 1638.20 683.56 C 1640.01 684.47 1643.53 686.88 1646.00 688.91 C 1648.47 690.94 1652.30 693.69 1654.50 695.02 C 1656.70 696.35 1658.95 697.78 1659.50 698.21 C 1664.44 702.00 1670.29 706.02 1674.20 708.29 C 1676.79 709.80 1679.49 711.86 1680.20 712.87 C 1680.92 713.89 1683.97 716.20 1687.00 718.02 C 1690.03 719.84 1693.62 722.30 1695.00 723.50 C 1696.38 724.69 1699.53 726.89 1702.00 728.37 C 1704.47 729.85 1709.42 733.29 1713.00 736.02 C 1716.58 738.75 1720.12 741.29 1720.89 741.65 C 1721.65 742.02 1724.80 744.06 1727.89 746.20 C 1730.97 748.33 1734.62 750.84 1736.00 751.78 C 1737.38 752.72 1739.62 754.50 1741.00 755.75 C 1742.38 757.00 1744.32 758.28 1745.33 758.60 C 1747.10 759.17 1758.09 766.95 1762.84 771.01 C 1764.12 772.11 1766.23 773.27 1767.52 773.59 C 1768.80 773.92 1770.07 774.74 1770.33 775.41 C 1770.59 776.09 1775.46 779.76 1781.15 783.56 C 1786.84 787.37 1792.54 791.43 1793.82 792.58 C 1795.10 793.74 1797.94 795.77 1800.14 797.09 C 1802.34 798.42 1805.95 800.96 1808.17 802.75 C 1810.38 804.54 1812.71 806.01 1813.34 806.02 C 1813.98 806.03 1817.29 808.17 1820.70 810.77 C 1824.11 813.37 1828.38 816.53 1830.20 817.79 C 1836.36 822.07 1844.49 827.94 1845.73 828.99 C 1846.41 829.57 1848.66 831.02 1850.73 832.21 C 1852.81 833.40 1856.15 835.75 1858.18 837.44 C 1860.20 839.12 1864.02 841.97 1866.68 843.76 C 1869.33 845.56 1873.08 848.13 1875.00 849.49 C 1876.92 850.85 1879.62 852.52 1881.00 853.22 C 1882.38 853.91 1883.95 854.96 1884.50 855.54 C 1886.21 857.38 1892.82 862.00 1893.73 862.00 C 1894.20 862.00 1897.50 864.47 1901.05 867.49 C 1904.60 870.50 1907.89 872.98 1908.37 872.99 C 1908.84 872.99 1912.02 875.19 1915.44 877.88 C 1918.85 880.56 1922.51 883.03 1923.57 883.36 C 1924.63 883.70 1926.65 885.05 1928.06 886.35 C 1929.46 887.66 1931.71 889.31 1933.06 890.02 C 1937.27 892.26 1949.00 902.34 1949.00 903.72 C 1949.00 905.78 1943.84 904.19 1941.46 901.40 C 1940.34 900.08 1938.88 899.00 1938.21 899.00 C 1937.55 899.00 1937.00 898.60 1937.00 898.11 C 1937.00 897.62 1935.88 896.93 1934.50 896.59 C 1933.12 896.24 1932.00 895.52 1932.00 894.98 C 1932.00 894.44 1931.38 894.00 1930.62 894.00 C 1929.86 894.00 1928.68 893.32 1928.00 892.50 C 1927.32 891.67 1926.10 891.00 1925.31 891.00 C 1924.51 891.00 1923.23 890.44 1922.46 889.75 C 1919.03 886.67 1917.99 886.00 1916.66 886.00 C 1915.88 886.00 1914.68 885.33 1914.00 884.50 C 1913.32 883.68 1912.34 883.00 1911.84 883.00 C 1911.33 883.00 1910.37 882.54 1909.71 881.98 C 1905.15 878.13 1903.61 877.08 1900.97 875.99 C 1899.34 875.31 1898.00 874.36 1898.00 873.88 C 1898.00 873.40 1897.37 873.00 1896.59 873.00 C 1895.81 873.00 1892.90 871.20 1890.12 869.00 C 1887.33 866.80 1883.24 864.05 1881.02 862.89 C 1878.80 861.74 1876.74 860.39 1876.44 859.90 C 1876.13 859.40 1875.05 859.00 1874.02 859.00 C 1873.00 859.00 1872.02 858.66 1871.83 858.25 C 1871.42 857.33 1859.36 849.00 1858.43 849.00 C 1858.06 849.00 1856.23 847.65 1854.35 846.00 C 1852.47 844.35 1850.02 843.00 1848.91 843.00 C 1847.79 843.00 1847.16 842.55 1847.50 842.00 C 1847.84 841.45 1847.45 841.00 1846.63 841.00 C 1845.81 841.00 1844.55 840.41 1843.82 839.69 C 1843.09 838.98 1840.92 837.51 1839.00 836.44 C 1837.08 835.37 1835.14 833.94 1834.70 833.25 C 1834.26 832.56 1833.36 832.00 1832.70 832.00 C 1832.04 832.00 1830.19 830.87 1828.59 829.50 C 1827.00 828.12 1825.35 827.00 1824.93 827.00 C 1824.51 827.00 1820.49 824.52 1816.00 821.50 C 1811.51 818.47 1807.42 816.00 1806.91 816.00 C 1806.41 816.00 1806.00 815.60 1806.00 815.12 C 1806.00 814.63 1805.21 813.97 1804.25 813.65 C 1802.25 812.97 1799.21 811.07 1797.22 809.25 C 1796.47 808.56 1795.30 808.00 1794.61 808.00 C 1793.92 808.00 1791.52 806.42 1789.27 804.50 C 1787.02 802.57 1784.77 801.00 1784.27 801.00 C 1783.77 801.00 1781.59 799.66 1779.43 798.03 C 1777.27 796.39 1774.49 795.04 1773.25 795.03 C 1772.01 795.01 1771.00 794.38 1771.00 793.61 C 1771.00 792.85 1769.31 791.43 1767.25 790.45 C 1765.19 789.47 1758.46 785.37 1752.29 781.34 C 1746.12 777.30 1740.70 774.00 1740.23 774.00 C 1739.76 774.00 1738.06 772.73 1736.44 771.19 C 1734.82 769.64 1731.47 767.43 1729.00 766.28 C 1726.53 765.13 1722.96 762.79 1721.07 761.09 C 1719.18 759.39 1717.24 758.00 1716.75 758.00 C 1716.27 758.00 1714.39 756.88 1712.59 755.50 C 1710.79 754.12 1708.82 753.00 1708.23 753.00 C 1707.63 753.00 1706.53 752.44 1705.78 751.75 C 1703.82 749.96 1701.14 748.31 1696.00 745.74 C 1693.53 744.51 1691.35 743.16 1691.17 742.75 C 1690.98 742.34 1690.26 742.00 1689.56 742.00 C 1688.87 742.00 1686.99 740.76 1685.39 739.25 C 1683.79 737.74 1680.68 735.60 1678.49 734.50 C 1676.30 733.40 1674.28 732.27 1674.00 732.00 C 1673.72 731.73 1672.78 731.05 1671.89 730.50 C 1671.00 729.95 1669.20 728.77 1667.89 727.87 C 1660.63 722.91 1645.26 713.26 1643.75 712.71 C 1642.79 712.35 1642.00 711.65 1642.00 711.15 C 1642.00 710.64 1641.21 709.97 1640.25 709.65 C 1638.25 708.97 1635.21 707.07 1633.22 705.25 C 1632.47 704.56 1630.99 704.00 1629.93 704.00 C 1628.87 704.00 1628.00 703.62 1628.00 703.16 C 1628.00 702.69 1626.31 701.46 1624.25 700.41 C 1622.19 699.36 1620.28 698.21 1620.00 697.86 C 1619.72 697.51 1617.59 696.22 1615.25 695.01 C 1612.91 693.79 1611.00 692.39 1611.00 691.90 C 1611.00 691.40 1610.52 691.00 1609.93 691.00 C 1609.35 691.00 1607.39 689.88 1605.59 688.50 C 1603.79 687.12 1601.84 686.00 1601.26 686.00 C 1600.69 686.00 1599.95 685.33 1599.64 684.50 C 1599.32 683.68 1598.35 683.00 1597.48 683.00 C 1596.62 683.00 1594.89 681.91 1593.65 680.57 C 1592.41 679.23 1590.22 677.84 1588.77 677.48 C 1587.33 677.12 1585.34 675.93 1584.35 674.83 C 1583.36 673.74 1580.63 671.97 1578.27 670.90 C 1575.92 669.83 1574.00 668.51 1574.00 667.98 C 1574.00 667.44 1573.29 667.00 1572.43 667.00 C 1571.56 667.00 1570.23 666.44 1569.46 665.75 C 1565.35 662.06 1560.44 659.00 1558.64 659.00 C 1557.86 659.00 1556.95 658.33 1556.64 657.50 C 1556.32 656.67 1555.37 656.00 1554.53 656.00 C 1553.69 656.00 1553.00 655.55 1553.00 655.00 C 1553.00 653.66 1543.95 648.04 1541.75 648.02 C 1540.79 648.01 1540.00 647.55 1540.00 647.00 C 1540.00 646.45 1539.15 646.00 1538.11 646.00 C 1537.07 646.00 1535.95 645.33 1535.64 644.50 C 1535.32 643.68 1534.41 643.00 1533.61 643.00 C 1532.82 643.00 1532.02 642.66 1531.83 642.25 C 1531.42 641.33 1505.55 624.00 1504.58 624.00 C 1504.20 624.00 1501.10 622.06 1497.69 619.69 C 1494.29 617.32 1489.47 614.28 1487.00 612.94 C 1484.53 611.60 1481.95 610.05 1481.28 609.50 C 1478.39 607.12 1477.36 606.41 1475.00 605.21 C 1472.36 603.86 1463.34 597.83 1461.29 596.05 C 1460.63 595.47 1459.81 595.00 1459.47 595.00 C 1459.13 595.00 1458.18 594.33 1457.36 593.50 C 1456.53 592.67 1454.94 592.00 1453.82 592.00 C 1452.70 592.00 1450.90 590.87 1449.82 589.50 C 1448.74 588.12 1447.23 587.00 1446.48 587.00 C 1445.72 587.00 1444.74 586.44 1444.30 585.75 C 1443.86 585.06 1441.73 583.60 1439.56 582.50 C 1437.39 581.40 1434.59 579.49 1433.35 578.25 C 1432.11 577.01 1430.40 576.00 1429.55 576.00 C 1428.70 576.00 1428.00 575.55 1428.00 575.00 C 1428.00 574.45 1427.09 574.00 1425.97 574.00 C 1424.85 574.00 1423.68 573.33 1423.36 572.50 C 1423.05 571.67 1421.96 571.00 1420.94 571.00 C 1419.93 571.00 1418.74 570.40 1418.30 569.66 C 1417.35 568.07 1407.05 561.27 1401.73 558.73 C 1399.65 557.73 1396.35 555.36 1394.39 553.46 C 1392.43 551.56 1389.85 549.99 1388.66 549.98 C 1387.47 549.97 1385.48 548.89 1384.23 547.58 C 1382.99 546.26 1380.06 544.20 1377.73 543.00 C 1375.41 541.80 1371.16 539.05 1368.29 536.91 C 1365.43 534.76 1362.79 533.00 1362.44 533.00 C 1362.08 533.00 1360.45 531.88 1358.82 530.50 C 1357.18 529.12 1354.93 528.00 1353.82 528.00 C 1352.70 528.00 1350.90 526.88 1349.82 525.50 C 1348.74 524.12 1347.27 523.00 1346.55 523.00 C 1345.83 523.00 1344.68 522.33 1344.00 521.50 C 1343.32 520.68 1341.88 520.00 1340.82 520.00 C 1339.75 520.00 1339.14 519.58 1339.46 519.07 C 1339.77 518.56 1339.07 517.84 1337.90 517.47 C 1336.01 516.87 1332.96 514.64 1329.55 511.37 C 1328.91 510.74 1326.47 509.26 1324.15 508.07 C 1321.82 506.89 1319.10 505.10 1318.10 504.10 C 1317.11 503.11 1315.10 501.99 1313.64 501.63 C 1312.19 501.26 1311.00 500.52 1311.00 499.98 C 1311.00 499.44 1310.38 499.00 1309.62 499.00 C 1308.86 499.00 1307.68 498.32 1307.00 497.50 C 1306.32 496.68 1304.99 496.00 1304.05 496.00 C 1303.12 496.00 1301.39 494.99 1300.23 493.75 C 1299.06 492.51 1296.40 490.60 1294.31 489.50 C 1292.21 488.40 1289.91 486.94 1289.18 486.25 C 1288.45 485.56 1287.44 485.00 1286.94 485.00 C 1286.44 485.00 1284.33 483.20 1282.26 481.00 C 1280.19 478.80 1277.68 477.00 1276.68 477.00 C 1274.01 477.00 1271.00 475.18 1266.51 470.85 C 1264.32 468.73 1261.71 467.00 1260.73 467.00 C 1259.74 467.00 1258.68 466.32 1258.36 465.50 C 1258.05 464.68 1257.14 464.00 1256.35 464.00 C 1255.55 464.00 1253.86 462.88 1252.59 461.50 C 1251.31 460.13 1249.73 459.00 1249.07 459.00 C 1248.41 459.00 1246.39 457.88 1244.59 456.50 C 1242.79 455.13 1240.33 454.00 1239.12 454.00 C 1237.92 454.00 1236.68 453.32 1236.36 452.50 C 1236.05 451.68 1235.18 451.00 1234.44 451.00 C 1233.70 451.00 1232.74 450.40 1232.30 449.66 C 1231.86 448.92 1230.15 447.47 1228.50 446.43 C 1226.85 445.39 1225.28 444.31 1225.00 444.02 C 1224.72 443.74 1222.71 442.60 1220.52 441.50 C 1218.34 440.40 1215.73 438.69 1214.73 437.71 C 1213.74 436.73 1211.93 435.49 1210.71 434.96 C 1207.56 433.60 1205.14 431.90 1201.82 428.75 C 1200.23 427.24 1198.43 426.00 1197.81 426.00 C 1197.19 426.00 1195.21 424.88 1193.41 423.50 C 1191.61 422.13 1189.81 421.00 1189.41 421.00 C 1189.01 421.00 1187.21 419.88 1185.41 418.50 C 1183.61 417.13 1181.63 416.00 1181.02 416.00 C 1180.41 416.00 1178.91 414.99 1177.70 413.75 C 1176.49 412.51 1173.92 410.64 1172.00 409.59 C 1170.08 408.54 1165.23 405.50 1161.23 402.84 C 1157.23 400.18 1153.54 398.00 1153.03 398.00 C 1152.52 398.00 1151.74 397.40 1151.30 396.67 C 1150.86 395.94 1148.94 394.48 1147.03 393.42 C 1142.72 391.03 1142.33 390.77 1137.87 387.03 C 1135.87 385.37 1133.77 384.00 1133.19 384.00 C 1132.62 384.00 1131.26 382.87 1130.18 381.50 C 1129.03 380.05 1127.18 379.00 1125.76 379.00 C 1123.29 379.00 1115.20 373.86 1113.70 371.34 C 1113.26 370.60 1112.46 370.00 1111.93 370.00 C 1111.06 370.00 1103.26 365.29 1102.00 364.01 C 1101.27 363.27 1097.74 361.09 1096.00 360.32 C 1095.17 359.95 1094.14 359.05 1093.70 358.33 C 1093.26 357.60 1091.75 357.00 1090.34 357.00 C 1088.81 357.00 1087.00 356.00 1085.82 354.50 C 1084.74 353.12 1083.42 352.00 1082.88 352.00 C 1082.35 352.00 1079.48 350.20 1076.50 348.00 C 1073.52 345.80 1070.36 344.00 1069.48 344.00 C 1068.60 344.00 1068.16 343.55 1068.50 343.00 C 1068.84 342.45 1068.52 342.00 1067.78 342.00 C 1067.05 342.00 1065.70 341.21 1064.79 340.25 C 1061.77 337.05 1060.10 336.00 1058.04 336.00 C 1056.92 336.00 1056.00 335.62 1056.00 335.15 C 1056.00 334.20 1046.40 328.00 1044.93 328.00 C 1044.42 328.00 1044.00 327.56 1044.00 327.02 C 1044.00 326.48 1042.88 325.76 1041.50 325.41 C 1040.12 325.07 1039.00 324.38 1039.00 323.89 C 1039.00 323.40 1038.47 323.00 1037.81 323.00 C 1037.16 323.00 1034.49 321.20 1031.88 319.00 C 1029.28 316.80 1026.50 315.00 1025.72 315.00 C 1024.94 315.00 1022.88 313.65 1021.16 312.00 C 1019.43 310.35 1017.57 309.00 1017.02 309.00 C 1015.95 309.00 1011.68 305.62 1009.12 302.75 C 1008.26 301.79 1006.61 301.00 1005.45 301.00 C 1004.30 301.00 1002.29 299.88 1001.00 298.50 C 999.71 297.13 998.05 296.00 997.33 296.00 C 996.60 296.00 996.00 295.58 996.00 295.07 C 996.00 294.55 995.02 293.82 993.82 293.44 C 992.63 293.06 990.49 291.68 989.08 290.38 C 987.67 289.07 985.95 288.00 985.26 288.00 C 984.57 288.00 984.00 287.62 984.00 287.16 C 984.00 286.70 982.99 285.81 981.75 285.19 C 980.51 284.57 977.25 282.71 974.50 281.05 C 971.75 279.39 968.83 277.71 968.00 277.31 C 967.17 276.92 965.38 275.57 964.01 274.30 C 962.64 273.04 960.73 272.00 959.76 272.00 C 958.79 272.00 958.00 271.32 958.00 270.50 C 958.00 269.68 957.36 269.00 956.58 269.00 C 955.80 269.00 955.02 268.66 954.83 268.25 C 954.65 267.84 952.89 266.68 950.92 265.68 C 948.95 264.68 946.22 262.83 944.86 261.57 C 943.50 260.31 940.84 258.53 938.94 257.62 C 937.05 256.71 933.98 254.63 932.11 252.98 C 930.25 251.34 927.59 250.00 926.20 250.00 C 924.81 250.00 923.95 249.72 924.30 249.37 C 925.17 248.50 920.56 245.00 918.54 245.00 C 917.64 245.00 915.86 243.87 914.59 242.50 C 913.31 241.12 911.76 240.00 911.14 240.00 C 910.51 240.00 910.00 239.56 910.00 239.02 C 910.00 238.48 908.88 237.76 907.50 237.41 C 906.12 237.07 905.00 236.38 905.00 235.89 C 905.00 235.40 904.35 235.00 903.55 235.00 C 902.75 235.00 901.74 234.43 901.30 233.74 C 900.31 232.18 892.41 227.00 891.02 227.00 C 890.46 227.00 890.00 226.58 890.00 226.07 C 890.00 225.55 889.21 224.88 888.25 224.56 C 887.29 224.24 884.48 222.19 882.00 220.01 C 879.52 217.82 876.70 216.02 875.72 216.02 C 874.74 216.01 873.68 215.33 873.36 214.50 C 873.05 213.68 872.14 213.00 871.35 213.00 C 870.55 213.00 868.86 211.88 867.59 210.50 C 866.31 209.13 864.34 208.00 863.21 208.00 C 862.08 208.00 859.82 206.88 858.18 205.50 C 856.55 204.13 854.74 203.00 854.16 203.00 C 853.57 203.00 852.74 202.40 852.30 201.67 C 851.86 200.94 849.93 199.48 848.02 198.42 C 844.68 196.58 843.93 196.06 840.58 193.25 C 839.76 192.56 838.67 192.00 838.16 192.00 C 837.66 192.00 836.68 191.32 836.00 190.50 C 835.32 189.68 834.16 189.00 833.42 189.00 C 832.69 189.00 830.97 187.88 829.59 186.50 C 828.22 185.12 826.22 184.00 825.15 184.00 C 824.09 184.00 822.95 183.33 822.64 182.50 C 822.32 181.68 821.61 181.00 821.07 181.00 C 820.52 181.00 818.69 179.65 817.00 178.00 C 815.31 176.35 813.23 175.00 812.38 175.00 C 811.53 175.00 808.91 173.43 806.57 171.50 C 804.22 169.58 801.83 168.00 801.25 168.00 C 800.68 168.00 799.95 167.32 799.64 166.50 C 799.32 165.67 797.92 165.00 796.53 165.00 C 795.09 165.00 794.00 164.43 794.00 163.67 C 794.00 162.94 792.76 161.76 791.25 161.05 C 789.74 160.35 787.83 159.36 787.00 158.86 C 786.17 158.35 784.71 157.68 783.75 157.35 C 782.79 157.03 782.00 156.39 782.00 155.93 C 782.00 155.47 780.31 154.31 778.25 153.35 C 776.19 152.39 774.14 151.02 773.70 150.30 C 773.26 149.59 772.25 149.00 771.45 149.00 C 770.65 149.00 770.00 148.55 770.00 148.00 C 770.00 147.45 769.31 147.00 768.47 147.00 C 767.63 147.00 766.68 146.32 766.36 145.50 C 766.05 144.67 764.98 144.00 764.00 144.00 C 763.02 144.00 761.95 143.32 761.64 142.50 C 761.32 141.67 760.49 140.98 759.78 140.95 C 759.08 140.92 756.70 139.13 754.50 136.96 C 751.80 134.30 749.60 133.01 747.75 133.01 C 746.08 133.00 745.00 132.46 745.00 131.61 C 745.00 130.85 743.54 129.49 741.75 128.59 C 738.02 126.70 735.12 124.94 733.37 123.50 C 730.30 120.96 726.91 118.58 719.50 113.73 C 715.10 110.86 710.91 107.94 710.18 107.25 C 709.45 106.56 707.51 106.00 705.87 106.00 C 704.13 106.00 703.14 105.58 703.50 105.00 C 703.84 104.45 703.64 104.00 703.06 104.00 C 702.48 104.00 702.00 103.33 702.00 102.50 C 702.00 101.67 701.11 101.00 700.00 101.00 C 698.90 101.00 697.08 100.08 695.95 98.95 C 693.94 96.94 690.84 96.98 688.61 99.06 C 688.08 99.55 688.20 156.52 688.89 237.19 C 692.13 615.70 692.19 1381.04 688.99 1628.00 C 688.45 1670.08 688.00 1721.43 688.00 1742.13 C 688.00 1785.78 687.65 1784.18 696.31 1779.64 C 703.61 1775.82 705.39 1774.68 706.30 1773.25 C 706.74 1772.56 707.71 1772.00 708.47 1772.00 C 709.22 1772.00 709.98 1771.64 710.17 1771.20 C 710.35 1770.76 713.22 1768.75 716.55 1766.75 C 719.88 1764.74 723.44 1762.17 724.46 1761.05 C 725.48 1759.92 727.14 1759.00 728.15 1759.00 C 729.17 1759.00 730.00 1758.58 730.00 1758.07 C 730.00 1757.55 730.99 1756.82 732.20 1756.44 C 733.42 1756.05 735.06 1755.08 735.86 1754.28 C 738.49 1751.65 745.09 1747.45 751.16 1744.54 C 753.18 1743.57 756.70 1741.03 759.00 1738.89 C 761.29 1736.75 763.76 1735.00 764.48 1735.00 C 765.20 1735.00 766.05 1734.33 766.36 1733.50 C 766.68 1732.67 767.70 1732.00 768.62 1732.00 C 770.07 1732.00 774.35 1729.26 778.72 1725.54 C 779.38 1724.97 780.58 1723.96 781.38 1723.29 C 782.18 1722.63 783.99 1721.79 785.41 1721.43 C 786.84 1721.08 788.00 1720.38 788.00 1719.89 C 788.00 1719.40 788.91 1719.00 790.03 1719.00 C 791.15 1719.00 792.32 1718.33 792.64 1717.50 C 792.95 1716.67 793.63 1716.00 794.15 1716.00 C 794.66 1716.00 795.63 1715.55 796.29 1714.99 C 796.96 1714.43 799.08 1712.64 801.00 1711.01 C 802.92 1709.37 805.11 1708.02 805.86 1708.02 C 806.60 1708.01 808.10 1706.88 809.18 1705.50 C 810.31 1704.06 812.17 1703.00 813.57 1703.00 C 815.06 1703.00 816.00 1702.42 816.00 1701.50 C 816.00 1700.67 816.67 1700.00 817.50 1700.00 C 818.33 1700.00 819.00 1699.56 819.00 1699.02 C 819.00 1698.48 820.12 1697.76 821.50 1697.41 C 822.88 1697.07 824.00 1696.41 824.00 1695.96 C 824.00 1695.51 824.82 1694.87 825.82 1694.56 C 826.83 1694.24 828.53 1693.19 829.60 1692.24 C 830.68 1691.28 833.15 1689.68 835.11 1688.68 C 837.07 1687.68 839.86 1685.76 841.31 1684.41 C 842.77 1683.06 845.24 1681.70 846.81 1681.39 C 848.38 1681.07 850.48 1679.73 851.47 1678.41 C 852.47 1677.08 854.12 1676.00 855.14 1676.00 C 856.16 1676.00 857.01 1675.66 857.01 1675.25 C 857.02 1674.84 859.49 1672.95 862.51 1671.05 C 865.53 1669.16 868.00 1667.25 868.00 1666.80 C 868.00 1666.36 868.64 1666.00 869.43 1666.00 C 870.21 1666.00 871.45 1665.41 872.18 1664.69 C 872.91 1663.98 875.08 1662.51 877.00 1661.44 C 878.92 1660.37 880.73 1659.24 881.00 1658.92 C 881.27 1658.61 883.08 1657.48 885.00 1656.42 C 886.92 1655.37 888.86 1653.94 889.30 1653.25 C 889.74 1652.56 890.75 1652.00 891.55 1652.00 C 892.35 1652.00 893.00 1651.56 893.00 1651.02 C 893.00 1650.48 894.12 1649.76 895.50 1649.41 C 896.88 1649.07 898.00 1648.43 898.00 1648.01 C 898.00 1647.58 898.79 1646.97 899.75 1646.65 C 902.04 1645.88 904.72 1644.03 907.59 1641.25 C 908.86 1640.01 911.06 1639.00 912.48 1639.00 C 914.24 1639.00 915.40 1638.22 916.18 1636.50 C 916.81 1635.12 917.86 1634.00 918.51 1634.00 C 919.16 1634.00 921.56 1632.65 923.84 1631.00 C 926.12 1629.35 928.39 1628.00 928.88 1628.00 C 929.38 1628.00 930.02 1627.40 930.30 1626.66 C 930.58 1625.92 932.32 1624.56 934.16 1623.63 C 938.05 1621.67 941.29 1619.73 942.00 1618.95 C 942.27 1618.64 944.08 1617.42 946.00 1616.24 C 947.92 1615.05 950.81 1612.94 952.41 1611.54 C 954.00 1610.14 956.14 1609.00 957.16 1609.00 C 958.17 1609.00 959.00 1608.55 959.00 1608.00 C 959.00 1607.45 959.65 1607.00 960.45 1607.00 C 961.25 1607.00 962.94 1605.99 964.20 1604.75 C 967.44 1601.57 974.38 1597.19 977.35 1596.45 C 978.73 1596.10 980.10 1595.19 980.40 1594.41 C 980.69 1593.63 981.88 1593.00 983.03 1593.00 C 984.18 1593.00 984.84 1592.55 984.50 1592.00 C 984.16 1591.45 984.48 1591.00 985.20 1591.00 C 985.93 1591.00 987.73 1589.88 989.20 1588.52 C 990.67 1587.15 993.82 1585.02 996.19 1583.79 C 1000.54 1581.52 1002.77 1579.95 1006.15 1576.75 C 1007.17 1575.79 1008.27 1575.00 1008.60 1575.00 C 1010.06 1575.00 1016.58 1571.48 1017.30 1570.30 C 1017.74 1569.59 1018.67 1569.00 1019.37 1569.00 C 1020.07 1569.00 1021.62 1567.88 1022.81 1566.50 C 1024.01 1565.12 1025.66 1564.00 1026.49 1564.00 C 1027.32 1564.00 1028.00 1563.56 1028.00 1563.02 C 1028.00 1562.48 1029.12 1561.76 1030.50 1561.41 C 1031.88 1561.07 1033.00 1560.43 1033.00 1560.00 C 1033.00 1559.57 1034.14 1558.93 1035.54 1558.58 C 1036.94 1558.23 1037.83 1557.54 1037.53 1557.05 C 1037.23 1556.56 1038.78 1555.36 1040.99 1554.38 C 1043.19 1553.41 1045.00 1552.29 1045.00 1551.89 C 1045.00 1551.48 1046.52 1550.65 1048.37 1550.04 C 1050.23 1549.43 1053.69 1547.13 1056.07 1544.93 C 1058.45 1542.74 1061.40 1540.69 1062.63 1540.38 C 1063.85 1540.07 1065.10 1539.19 1065.40 1538.41 C 1065.69 1537.63 1066.67 1537.00 1067.57 1537.00 C 1068.48 1537.00 1070.10 1535.88 1071.18 1534.50 C 1072.26 1533.12 1073.84 1532.00 1074.69 1532.00 C 1075.54 1532.00 1077.87 1530.63 1079.87 1528.97 C 1085.67 1524.11 1085.85 1524.00 1087.34 1524.00 C 1088.12 1524.00 1089.32 1523.33 1090.00 1522.50 C 1090.68 1521.67 1092.12 1521.00 1093.18 1521.00 C 1094.25 1521.00 1094.84 1520.55 1094.50 1520.00 C 1094.16 1519.45 1094.55 1519.00 1095.37 1519.00 C 1096.19 1519.00 1097.47 1518.44 1098.22 1517.75 C 1100.21 1515.93 1103.25 1514.03 1105.25 1513.35 C 1106.21 1513.03 1107.00 1512.47 1107.00 1512.11 C 1107.00 1511.75 1108.69 1510.56 1110.75 1509.48 C 1114.97 1507.25 1115.95 1506.55 1119.86 1503.00 C 1121.37 1501.62 1124.27 1499.72 1126.30 1498.77 C 1128.34 1497.81 1130.00 1496.58 1130.00 1496.02 C 1130.00 1495.46 1130.85 1495.00 1131.89 1495.00 C 1132.94 1495.00 1135.23 1493.65 1137.00 1492.00 C 1138.77 1490.35 1141.09 1489.00 1142.16 1489.00 C 1143.24 1489.00 1143.88 1488.62 1143.60 1488.16 C 1143.31 1487.69 1144.97 1486.33 1147.29 1485.12 C 1152.01 1482.66 1154.81 1480.98 1156.67 1479.50 C 1159.77 1477.04 1160.77 1476.36 1164.51 1474.19 C 1166.71 1472.91 1169.29 1471.62 1170.25 1471.32 C 1171.21 1471.02 1172.00 1470.14 1172.00 1469.38 C 1172.00 1468.62 1172.92 1468.00 1174.05 1468.00 C 1175.17 1468.00 1177.09 1466.95 1178.30 1465.68 C 1179.51 1464.40 1181.29 1463.06 1182.25 1462.71 C 1183.21 1462.35 1184.00 1461.60 1184.00 1461.03 C 1184.00 1460.46 1184.67 1460.00 1185.50 1460.00 C 1186.33 1460.00 1187.00 1459.66 1187.00 1459.24 C 1187.00 1458.82 1189.24 1457.41 1191.98 1456.11 C 1194.72 1454.81 1196.72 1453.35 1196.42 1452.87 C 1196.12 1452.39 1196.60 1452.00 1197.48 1452.00 C 1198.36 1452.00 1199.63 1451.54 1200.29 1450.98 C 1205.11 1446.92 1206.47 1446.00 1207.65 1446.00 C 1208.39 1446.00 1209.00 1445.55 1209.00 1445.00 C 1209.00 1444.45 1209.59 1444.00 1210.30 1444.00 C 1211.66 1444.00 1220.25 1438.10 1220.83 1436.77 C 1221.02 1436.34 1221.75 1436.00 1222.46 1436.00 C 1223.17 1436.00 1224.32 1435.33 1225.00 1434.50 C 1225.68 1433.67 1227.12 1433.00 1228.18 1433.00 C 1229.25 1433.00 1229.86 1432.59 1229.55 1432.08 C 1229.24 1431.58 1230.34 1430.87 1231.99 1430.50 C 1233.65 1430.14 1235.00 1429.46 1235.00 1428.99 C 1235.00 1427.42 1238.12 1425.00 1240.14 1425.00 C 1241.24 1425.00 1244.28 1423.20 1246.88 1421.00 C 1249.49 1418.80 1252.46 1417.00 1253.48 1417.00 C 1254.50 1417.00 1255.04 1416.70 1254.67 1416.34 C 1254.07 1415.74 1256.16 1414.18 1260.00 1412.37 C 1260.83 1411.99 1263.08 1410.45 1265.00 1408.95 C 1266.92 1407.46 1270.74 1404.98 1273.48 1403.45 C 1276.23 1401.93 1279.07 1400.07 1279.81 1399.34 C 1280.54 1398.60 1281.79 1398.00 1282.57 1398.00 C 1283.36 1398.00 1284.00 1397.55 1284.00 1397.00 C 1284.00 1396.45 1284.69 1396.00 1285.53 1396.00 C 1286.37 1396.00 1287.32 1395.33 1287.64 1394.50 C 1287.95 1393.67 1288.84 1393.00 1289.61 1393.00 C 1290.37 1393.00 1291.00 1392.65 1291.00 1392.23 C 1291.00 1391.80 1292.69 1390.58 1294.75 1389.50 C 1296.81 1388.43 1299.85 1386.58 1301.50 1385.39 C 1303.15 1384.20 1305.51 1382.92 1306.75 1382.55 C 1307.99 1382.17 1309.00 1381.45 1309.00 1380.93 C 1309.00 1380.42 1309.63 1380.00 1310.39 1380.00 C 1311.16 1380.00 1312.05 1379.33 1312.36 1378.50 C 1312.68 1377.67 1313.58 1377.00 1314.36 1377.00 C 1315.15 1377.00 1316.05 1376.33 1316.36 1375.50 C 1316.68 1374.67 1317.45 1374.00 1318.07 1374.00 C 1318.70 1374.00 1320.55 1372.88 1322.18 1371.50 C 1323.82 1370.12 1325.76 1369.00 1326.49 1369.00 C 1327.23 1369.00 1327.99 1368.53 1328.18 1367.95 C 1328.38 1367.37 1329.23 1366.79 1330.07 1366.67 C 1330.92 1366.54 1332.93 1365.22 1334.55 1363.72 C 1336.16 1362.22 1338.16 1361.00 1339.00 1361.00 C 1339.84 1361.00 1341.37 1359.88 1342.40 1358.50 C 1343.44 1357.12 1344.90 1356.00 1345.65 1356.00 C 1346.40 1356.00 1348.88 1354.65 1351.16 1353.00 C 1353.44 1351.35 1355.91 1350.00 1356.65 1350.00 C 1357.39 1350.00 1358.00 1349.62 1358.00 1349.16 C 1358.00 1348.70 1359.76 1347.47 1361.91 1346.42 C 1364.06 1345.37 1365.61 1344.18 1365.35 1343.76 C 1365.09 1343.34 1365.55 1343.00 1366.37 1343.00 C 1367.19 1343.00 1368.47 1342.38 1369.23 1341.63 C 1369.98 1340.88 1371.58 1339.95 1372.80 1339.56 C 1374.01 1339.18 1375.00 1338.45 1375.00 1337.93 C 1375.00 1337.42 1375.57 1337.00 1376.26 1337.00 C 1376.95 1337.00 1378.73 1335.87 1380.22 1334.50 C 1381.70 1333.12 1383.40 1332.00 1383.99 1332.00 C 1384.58 1332.00 1385.32 1331.33 1385.64 1330.50 C 1385.95 1329.67 1387.32 1329.00 1388.67 1329.00 C 1390.05 1329.00 1390.85 1328.56 1390.50 1328.00 C 1390.16 1327.45 1390.55 1327.00 1391.37 1327.00 C 1392.19 1327.00 1393.46 1326.40 1394.19 1325.67 C 1394.92 1324.94 1396.77 1324.02 1398.30 1323.64 C 1399.83 1323.26 1400.85 1322.57 1400.58 1322.12 C 1400.30 1321.67 1401.29 1320.67 1402.78 1319.91 C 1405.84 1318.34 1418.23 1310.10 1419.00 1309.13 C 1419.68 1308.27 1423.17 1306.11 1425.00 1305.42 C 1425.83 1305.11 1427.17 1304.44 1428.00 1303.93 C 1428.83 1303.41 1430.40 1302.60 1431.50 1302.11 C 1432.60 1301.63 1434.36 1300.28 1435.40 1299.11 C 1436.45 1297.95 1438.09 1297.00 1439.05 1297.00 C 1440.00 1297.00 1441.05 1296.33 1441.36 1295.50 C 1441.68 1294.67 1442.70 1294.00 1443.64 1294.00 C 1444.57 1294.00 1445.05 1293.71 1444.69 1293.36 C 1443.93 1292.59 1450.36 1289.00 1452.50 1289.00 C 1453.32 1289.00 1454.00 1288.58 1454.00 1288.07 C 1454.00 1287.55 1454.93 1286.84 1456.08 1286.48 C 1457.22 1286.11 1457.90 1285.57 1457.59 1285.26 C 1457.28 1284.95 1458.04 1284.16 1459.27 1283.50 C 1460.49 1282.84 1463.47 1281.26 1465.88 1279.98 C 1468.29 1278.71 1471.39 1276.61 1472.78 1275.33 C 1474.16 1274.05 1475.90 1273.00 1476.65 1273.00 C 1477.39 1273.00 1478.00 1272.56 1478.00 1272.02 C 1478.00 1271.48 1479.12 1270.76 1480.49 1270.41 C 1481.86 1270.07 1482.74 1269.38 1482.43 1268.89 C 1482.13 1268.40 1482.34 1268.00 1482.89 1268.00 C 1483.45 1268.00 1485.90 1266.65 1488.34 1265.00 C 1490.79 1263.35 1493.29 1262.00 1493.90 1262.00 C 1494.50 1262.00 1495.01 1261.66 1495.01 1261.25 C 1495.02 1260.84 1496.82 1259.64 1499.01 1258.59 C 1501.21 1257.54 1503.00 1256.30 1503.00 1255.84 C 1503.00 1255.38 1503.67 1255.00 1504.49 1255.00 C 1505.31 1255.00 1507.19 1253.65 1508.66 1252.00 C 1510.13 1250.35 1511.72 1249.00 1512.19 1249.00 C 1512.66 1249.00 1515.90 1247.20 1519.38 1245.00 C 1522.87 1242.80 1526.04 1241.00 1526.43 1241.00 C 1526.82 1241.00 1527.77 1240.44 1528.54 1239.75 C 1531.85 1236.78 1532.98 1236.00 1533.96 1236.00 C 1534.53 1236.00 1535.00 1235.33 1535.00 1234.50 C 1535.00 1233.51 1535.99 1233.00 1537.88 1233.00 C 1539.46 1233.00 1541.32 1232.33 1542.00 1231.50 C 1542.68 1230.67 1543.86 1230.00 1544.62 1230.00 C 1545.38 1230.00 1546.00 1229.55 1546.00 1229.00 C 1546.00 1228.45 1546.65 1228.00 1547.45 1228.00 C 1548.25 1228.00 1549.98 1226.93 1551.29 1225.62 C 1552.60 1224.31 1554.64 1222.93 1555.83 1222.55 C 1557.03 1222.17 1558.00 1221.48 1558.00 1221.00 C 1558.00 1220.52 1559.24 1219.99 1560.75 1219.82 C 1562.30 1219.64 1563.39 1218.95 1563.25 1218.25 C 1563.11 1217.56 1563.85 1217.00 1564.89 1217.00 C 1565.93 1217.00 1567.05 1216.33 1567.36 1215.50 C 1567.68 1214.67 1568.46 1214.00 1569.10 1214.00 C 1569.75 1214.00 1571.31 1212.88 1572.59 1211.50 C 1573.86 1210.12 1575.31 1209.00 1575.80 1209.00 C 1577.45 1209.00 1583.48 1205.63 1585.99 1203.30 C 1587.36 1202.04 1589.52 1201.00 1590.80 1201.00 C 1592.19 1201.00 1592.85 1200.57 1592.46 1199.93 C 1592.10 1199.35 1592.74 1198.62 1593.89 1198.32 C 1595.04 1198.02 1595.76 1197.42 1595.50 1196.99 C 1595.23 1196.56 1596.14 1195.93 1597.51 1195.59 C 1598.88 1195.24 1600.00 1194.52 1600.00 1193.98 C 1600.00 1193.44 1600.86 1193.00 1601.92 1193.00 C 1602.97 1193.00 1603.98 1192.66 1604.17 1192.25 C 1604.65 1191.16 1613.88 1185.00 1615.03 1185.00 C 1615.56 1185.00 1616.00 1184.55 1616.00 1184.00 C 1616.00 1183.45 1616.88 1183.00 1617.96 1183.00 C 1619.05 1183.00 1620.41 1182.10 1621.00 1181.00 C 1621.59 1179.90 1622.95 1179.00 1624.04 1179.00 C 1625.12 1179.00 1626.00 1178.55 1626.00 1178.00 C 1626.00 1177.45 1626.67 1177.00 1627.50 1177.00 C 1628.33 1177.00 1629.00 1176.59 1629.00 1176.10 C 1629.00 1175.60 1630.33 1174.73 1631.95 1174.17 C 1633.57 1173.60 1635.70 1172.21 1636.67 1171.07 C 1637.65 1169.93 1639.20 1169.00 1640.12 1169.00 C 1641.03 1169.00 1642.05 1168.33 1642.36 1167.50 C 1642.68 1166.67 1643.88 1166.00 1645.03 1166.00 C 1646.18 1166.00 1646.87 1165.60 1646.57 1165.11 C 1646.26 1164.62 1647.15 1163.93 1648.55 1163.58 C 1649.94 1163.23 1650.88 1162.61 1650.63 1162.21 C 1650.38 1161.81 1652.16 1160.60 1654.59 1159.52 C 1657.02 1158.44 1659.00 1157.21 1659.00 1156.78 C 1659.00 1156.36 1661.48 1154.62 1664.50 1152.91 C 1667.53 1151.21 1670.00 1149.46 1670.00 1149.03 C 1670.00 1148.60 1671.38 1147.97 1673.07 1147.64 C 1674.75 1147.30 1675.88 1146.62 1675.58 1146.13 C 1675.27 1145.63 1675.80 1144.96 1676.76 1144.62 C 1677.72 1144.29 1680.75 1142.64 1683.50 1140.96 C 1686.25 1139.27 1689.29 1137.64 1690.25 1137.33 C 1691.21 1137.02 1692.00 1136.37 1692.00 1135.88 C 1692.00 1135.40 1692.64 1135.00 1693.43 1135.00 C 1694.21 1135.00 1695.47 1134.38 1696.23 1133.63 C 1696.98 1132.88 1698.58 1131.95 1699.80 1131.56 C 1701.01 1131.18 1702.00 1130.45 1702.00 1129.93 C 1702.00 1129.42 1702.63 1129.00 1703.39 1129.00 C 1704.16 1129.00 1705.05 1128.33 1705.36 1127.50 C 1705.68 1126.67 1706.65 1126.00 1707.53 1126.00 C 1708.40 1126.00 1708.87 1125.60 1708.57 1125.11 C 1708.27 1124.63 1708.80 1123.96 1709.76 1123.63 C 1710.72 1123.29 1712.85 1122.12 1714.50 1121.02 C 1716.15 1119.92 1718.17 1118.71 1719.00 1118.33 C 1719.83 1117.96 1720.72 1117.38 1721.00 1117.05 C 1722.26 1115.55 1727.10 1113.00 1728.71 1112.98 C 1729.70 1112.98 1732.08 1111.63 1734.00 1109.99 C 1735.92 1108.36 1738.04 1106.57 1738.71 1106.01 C 1739.37 1105.45 1740.50 1104.99 1741.21 1104.98 C 1741.92 1104.97 1743.47 1103.94 1744.65 1102.69 C 1745.84 1101.44 1748.53 1099.54 1750.64 1098.46 C 1752.75 1097.38 1755.07 1095.94 1755.81 1095.25 C 1756.54 1094.56 1757.86 1094.00 1758.74 1094.00 C 1759.62 1094.00 1760.03 1093.70 1759.67 1093.34 C 1758.83 1092.50 1765.93 1088.07 1768.18 1088.03 C 1769.11 1088.01 1770.15 1087.10 1770.50 1086.00 C 1770.85 1084.90 1771.97 1084.00 1773.00 1084.00 C 1774.02 1084.00 1775.53 1083.33 1776.36 1082.50 C 1777.18 1081.67 1778.23 1081.00 1778.69 1081.00 C 1779.15 1081.00 1780.71 1079.89 1782.17 1078.54 C 1783.63 1077.19 1785.99 1075.79 1787.41 1075.43 C 1788.82 1075.08 1789.74 1074.38 1789.43 1073.89 C 1789.13 1073.40 1789.60 1073.00 1790.47 1073.00 C 1791.35 1073.00 1792.32 1072.33 1792.64 1071.50 C 1792.95 1070.67 1794.02 1070.00 1795.00 1070.00 C 1795.98 1070.00 1797.03 1069.37 1797.33 1068.60 C 1797.62 1067.82 1800.08 1066.36 1802.79 1065.35 C 1807.41 1063.62 1811.47 1061.17 1814.54 1058.25 C 1815.26 1057.56 1816.52 1057.00 1817.32 1057.00 C 1818.13 1057.00 1819.05 1056.33 1819.36 1055.50 C 1819.68 1054.67 1820.56 1054.00 1821.32 1054.00 C 1822.08 1054.00 1823.86 1052.94 1825.26 1051.63 C 1826.66 1050.33 1829.77 1048.32 1832.16 1047.16 C 1834.55 1046.00 1837.07 1044.14 1837.76 1043.03 C 1838.45 1041.91 1839.88 1041.00 1840.94 1041.00 C 1841.99 1041.00 1843.53 1040.33 1844.36 1039.50 C 1845.18 1038.67 1846.34 1038.00 1846.93 1038.00 C 1847.52 1038.00 1848.00 1037.63 1848.00 1037.18 C 1848.00 1036.72 1850.02 1035.34 1852.50 1034.11 C 1854.97 1032.87 1857.00 1031.44 1857.00 1030.93 C 1857.00 1030.42 1857.71 1030.00 1858.57 1030.00 C 1859.44 1030.00 1860.77 1029.44 1861.54 1028.75 C 1864.72 1025.90 1868.90 1023.14 1871.25 1022.35 C 1872.21 1022.03 1873.00 1021.37 1873.00 1020.88 C 1873.00 1020.40 1873.82 1020.00 1874.81 1020.00 C 1875.81 1020.00 1877.92 1018.65 1879.50 1017.00 C 1881.08 1015.35 1883.35 1014.00 1884.54 1014.00 C 1885.73 1014.00 1887.92 1012.87 1889.41 1011.50 C 1890.89 1010.12 1892.48 1009.00 1892.94 1009.00 C 1893.41 1009.00 1894.06 1008.30 1894.39 1007.44 C 1894.72 1006.58 1895.43 1006.15 1895.97 1006.48 C 1896.51 1006.81 1897.73 1006.17 1898.70 1005.04 C 1899.66 1003.92 1901.08 1003.00 1901.86 1003.00 C 1902.63 1003.00 1904.31 1001.88 1905.59 1000.50 C 1906.86 999.13 1908.64 998.00 1909.54 998.00 C 1911.56 998.00 1916.17 994.50 1915.30 993.63 C 1914.95 993.28 1915.66 993.00 1916.86 993.00 C 1918.07 993.00 1919.32 992.33 1919.64 991.50 C 1919.95 990.68 1920.84 990.00 1921.61 990.00 C 1922.37 990.00 1923.00 989.60 1923.00 989.11 C 1923.00 988.62 1924.12 987.93 1925.50 987.59 C 1926.87 987.24 1928.00 986.52 1928.00 985.98 C 1928.00 985.44 1928.62 985.00 1929.38 985.00 C 1930.14 985.00 1931.32 984.32 1932.00 983.50 C 1932.68 982.67 1934.09 982.00 1935.12 982.00 C 1936.16 982.00 1937.00 981.55 1937.00 981.00 C 1937.00 980.45 1937.90 980.00 1939.00 980.00 C 1940.10 980.00 1941.00 979.51 1941.00 978.91 C 1941.00 977.02 1945.39 974.07 1948.25 974.03 C 1949.76 974.01 1951.00 974.42 1951.00 974.93 C 1951.00 976.27 1946.07 979.95 1943.34 980.63 C 1942.05 980.95 1941.00 981.82 1941.00 982.56 C 1941.00 983.30 1939.99 984.62 1938.75 985.49 C 1937.51 986.36 1929.53 992.00 1921.00 998.03 C 1912.47 1004.06 1903.08 1010.68 1900.13 1012.75 C 1897.17 1014.81 1894.17 1017.06 1893.45 1017.75 C 1892.73 1018.44 1891.75 1019.00 1891.27 1019.00 C 1890.80 1019.00 1889.53 1019.68 1888.45 1020.51 C 1879.15 1027.71 1874.22 1031.26 1866.95 1035.99 C 1862.30 1039.02 1857.89 1042.06 1857.16 1042.77 C 1856.42 1043.47 1854.39 1044.78 1852.66 1045.67 C 1850.92 1046.56 1848.38 1048.15 1847.00 1049.20 C 1842.53 1052.61 1837.27 1056.47 1835.36 1057.74 C 1834.34 1058.42 1829.37 1061.90 1824.32 1065.49 C 1819.27 1069.07 1814.76 1072.00 1814.29 1072.00 C 1813.83 1072.00 1811.93 1073.38 1810.08 1075.07 C 1806.45 1078.39 1794.69 1086.76 1787.24 1091.33 C 1784.70 1092.89 1780.62 1095.93 1778.17 1098.08 C 1775.72 1100.24 1773.11 1102.00 1772.36 1102.00 C 1771.61 1102.00 1771.00 1102.46 1771.00 1103.03 C 1771.00 1103.60 1770.21 1104.39 1769.25 1104.79 C 1765.93 1106.17 1727.10 1132.88 1720.82 1138.11 C 1718.25 1140.25 1715.84 1142.00 1715.47 1142.00 C 1715.10 1142.00 1711.29 1144.59 1707.00 1147.75 C 1702.71 1150.91 1697.31 1154.62 1695.01 1156.00 C 1692.70 1157.38 1689.17 1159.98 1687.16 1161.78 C 1685.15 1163.58 1681.47 1166.25 1679.00 1167.71 C 1676.53 1169.17 1673.89 1170.98 1673.15 1171.72 C 1672.40 1172.46 1670.15 1173.92 1668.15 1174.97 C 1666.14 1176.01 1663.31 1178.00 1661.85 1179.38 C 1660.39 1180.76 1656.91 1183.31 1654.10 1185.03 C 1651.30 1186.76 1649.00 1188.58 1649.00 1189.09 C 1649.00 1189.59 1648.38 1190.00 1647.62 1190.00 C 1646.86 1190.00 1643.60 1192.06 1640.37 1194.57 C 1634.79 1198.92 1625.38 1205.54 1617.01 1211.00 C 1614.90 1212.38 1608.64 1216.65 1603.09 1220.50 C 1597.55 1224.35 1590.20 1229.38 1586.76 1231.68 C 1583.32 1233.97 1578.25 1237.47 1575.50 1239.44 C 1572.75 1241.41 1567.58 1245.12 1564.00 1247.67 C 1560.42 1250.22 1557.28 1252.62 1557.00 1252.99 C 1556.72 1253.37 1554.25 1254.94 1551.50 1256.50 C 1548.75 1258.05 1545.15 1260.51 1543.50 1261.97 C 1539.98 1265.08 1533.34 1270.00 1532.67 1270.00 C 1531.85 1270.00 1522.18 1276.72 1517.65 1280.43 C 1515.25 1282.39 1512.61 1284.00 1511.77 1284.00 C 1510.93 1284.00 1509.64 1284.73 1508.89 1285.63 C 1508.14 1286.53 1502.58 1290.55 1496.52 1294.56 C 1490.46 1298.57 1484.29 1303.00 1482.81 1304.41 C 1481.33 1305.82 1478.18 1307.96 1475.81 1309.18 C 1473.44 1310.40 1471.28 1311.69 1471.00 1312.06 C 1470.09 1313.26 1447.96 1328.99 1441.16 1333.26 C 1437.50 1335.57 1434.05 1337.82 1433.50 1338.28 C 1432.48 1339.12 1426.92 1342.95 1417.00 1349.66 C 1413.97 1351.70 1410.99 1353.85 1410.37 1354.44 C 1409.75 1355.02 1408.23 1356.17 1407.00 1357.00 C 1405.77 1357.83 1404.24 1358.95 1403.61 1359.50 C 1402.98 1360.05 1400.90 1361.36 1398.98 1362.42 C 1397.07 1363.48 1392.35 1366.68 1388.50 1369.53 C 1381.80 1374.50 1376.41 1378.19 1369.62 1382.47 C 1367.91 1383.55 1363.08 1386.92 1358.90 1389.97 C 1354.72 1393.01 1350.27 1396.17 1349.01 1397.00 C 1347.75 1397.83 1345.55 1399.43 1344.11 1400.58 C 1342.67 1401.72 1338.74 1404.34 1335.36 1406.40 C 1331.98 1408.47 1328.28 1411.02 1327.15 1412.08 C 1326.01 1413.13 1324.65 1414.00 1324.11 1414.00 C 1323.58 1414.00 1322.55 1414.56 1321.82 1415.25 C 1321.09 1415.94 1318.79 1417.40 1316.69 1418.50 C 1314.60 1419.60 1311.94 1421.51 1310.77 1422.75 C 1309.61 1423.99 1308.17 1425.02 1307.58 1425.04 C 1306.98 1425.07 1302.67 1427.99 1298.00 1431.54 C 1293.33 1435.09 1287.56 1438.95 1285.18 1440.12 C 1282.81 1441.29 1280.34 1443.09 1279.69 1444.12 C 1279.05 1445.15 1277.98 1446.00 1277.33 1446.00 C 1276.68 1446.00 1275.55 1446.57 1274.82 1447.28 C 1273.39 1448.66 1265.09 1454.37 1252.50 1462.65 C 1248.10 1465.54 1242.25 1469.66 1239.50 1471.81 C 1236.75 1473.97 1231.80 1477.46 1228.50 1479.59 C 1225.20 1481.71 1219.95 1485.37 1216.83 1487.73 C 1213.71 1490.08 1210.76 1492.00 1210.28 1492.00 C 1209.80 1492.00 1202.91 1496.51 1194.96 1502.02 C 1165.88 1522.18 1165.05 1522.77 1157.71 1528.39 C 1155.64 1529.98 1152.19 1532.23 1150.05 1533.39 C 1147.90 1534.55 1144.56 1536.96 1142.61 1538.75 C 1140.66 1540.53 1137.14 1542.75 1134.78 1543.68 C 1130.61 1545.33 1124.08 1549.82 1117.00 1555.93 C 1115.08 1557.59 1113.18 1558.96 1112.78 1558.97 C 1112.38 1558.99 1108.74 1561.25 1104.69 1564.00 C 1100.64 1566.75 1096.87 1569.00 1096.32 1569.00 C 1095.76 1569.00 1094.45 1569.95 1093.40 1571.12 C 1091.60 1573.13 1074.52 1585.04 1064.17 1591.50 C 1061.53 1593.15 1057.60 1595.87 1055.44 1597.54 C 1053.27 1599.21 1049.81 1601.45 1047.75 1602.51 C 1045.69 1603.58 1044.00 1604.77 1044.00 1605.16 C 1044.00 1605.54 1041.19 1607.54 1037.75 1609.60 C 1034.31 1611.67 1029.47 1614.99 1027.00 1616.99 C 1024.53 1618.99 1020.30 1621.95 1017.61 1623.56 C 1014.93 1625.18 1011.73 1627.17 1010.50 1628.00 C 1009.27 1628.83 1006.07 1630.81 1003.39 1632.41 C 1000.70 1634.01 997.15 1636.53 995.50 1638.00 C 991.79 1641.32 983.23 1647.00 981.95 1647.00 C 981.43 1647.00 981.00 1647.35 981.00 1647.78 C 981.00 1648.22 979.54 1649.41 977.75 1650.43 C 975.96 1651.46 970.67 1655.04 966.00 1658.40 C 961.33 1661.75 956.75 1664.95 955.84 1665.50 C 954.92 1666.05 951.00 1668.64 947.12 1671.25 C 943.24 1673.86 939.60 1676.00 939.03 1676.00 C 938.46 1676.00 938.00 1676.39 938.00 1676.88 C 938.00 1677.36 935.29 1679.50 931.98 1681.63 C 928.67 1683.76 922.93 1687.71 919.23 1690.41 C 915.53 1693.11 910.59 1696.33 908.27 1697.57 C 905.94 1698.81 903.39 1700.43 902.60 1701.16 C 899.54 1704.03 894.58 1707.60 890.76 1709.69 C 888.56 1710.89 885.80 1712.70 884.63 1713.70 C 883.46 1714.71 880.93 1716.39 879.02 1717.46 C 877.10 1718.52 874.63 1720.22 873.52 1721.23 C 872.41 1722.25 867.45 1725.75 862.50 1729.03 C 851.86 1736.06 852.59 1735.56 842.71 1742.53 C 838.43 1745.55 832.35 1749.45 829.21 1751.20 C 826.07 1752.95 822.15 1755.45 820.50 1756.77 C 810.30 1764.92 799.92 1771.95 783.46 1781.87 C 780.69 1783.54 777.09 1786.09 775.46 1787.53 C 773.83 1788.97 770.14 1791.51 767.25 1793.17 C 764.36 1794.83 761.74 1796.60 761.43 1797.11 C 761.12 1797.62 759.30 1798.68 757.40 1799.48 C 755.49 1800.27 752.78 1802.29 751.38 1803.96 C 749.97 1805.63 748.19 1807.00 747.41 1807.00 C 746.63 1807.00 746.00 1807.44 746.00 1807.99 C 746.00 1808.53 742.51 1811.00 738.25 1813.48 C 733.99 1815.95 728.70 1819.54 726.50 1821.45 C 724.30 1823.37 721.32 1825.19 719.88 1825.52 C 718.43 1825.84 716.22 1827.21 714.95 1828.55 C 713.69 1829.90 712.26 1831.00 711.78 1831.00 C 710.70 1831.00 698.63 1839.21 698.17 1840.25 C 697.98 1840.66 697.27 1841.00 696.58 1841.00 C 695.89 1841.00 692.58 1843.14 689.22 1845.75 C 685.86 1848.36 680.27 1852.30 676.81 1854.49 C 673.34 1856.69 669.86 1859.10 669.08 1859.84 C 668.30 1860.59 663.57 1863.92 658.58 1867.24 C 651.19 1872.15 648.57 1873.36 644.50 1873.70 L 639.50 1874.13 L 625.75 1860.01Z"/></g>
<g fill="#16110BFE">
<path d="M 781.12 1601.65 C 779.59 1599.80 779.50 274.80 781.03 271.94 C 782.50 269.20 785.39 269.53 789.22 272.87 C 791.02 274.44 793.58 276.07 794.91 276.48 C 796.23 276.90 799.88 279.09 803.02 281.37 C 806.16 283.64 811.80 287.30 815.56 289.50 C 819.32 291.70 823.99 295.13 825.95 297.13 C 827.90 299.12 830.96 301.07 832.74 301.45 C 834.52 301.84 836.24 302.58 836.56 303.09 C 836.88 303.61 839.92 305.81 843.32 307.98 C 851.80 313.39 861.42 319.95 865.70 323.25 C 867.67 324.76 869.73 326.00 870.29 326.00 C 870.85 326.00 872.70 327.06 874.41 328.36 C 876.11 329.65 879.43 331.70 881.80 332.90 C 884.16 334.10 887.81 336.64 889.91 338.54 C 892.01 340.44 895.34 342.66 897.30 343.48 C 899.26 344.30 901.15 345.44 901.50 346.00 C 901.85 346.57 904.25 348.12 906.82 349.44 C 913.19 352.70 936.91 368.38 940.00 371.38 C 941.38 372.71 943.62 374.13 944.99 374.54 C 948.13 375.48 955.00 379.99 955.00 381.11 C 955.00 381.58 956.91 382.93 959.25 384.11 C 963.17 386.09 969.20 389.78 976.38 394.58 C 977.97 395.63 980.92 397.40 982.94 398.50 C 984.96 399.60 988.61 401.97 991.06 403.77 C 998.70 409.39 1008.68 415.81 1013.89 418.44 C 1016.64 419.84 1019.25 421.61 1019.69 422.38 C 1020.54 423.86 1028.04 428.75 1034.00 431.71 C 1035.92 432.67 1039.59 435.15 1042.14 437.23 C 1044.69 439.30 1047.22 441.00 1047.75 441.00 C 1048.29 441.00 1050.33 442.24 1052.30 443.75 C 1054.26 445.26 1058.15 447.85 1060.94 449.50 C 1063.72 451.15 1069.94 455.31 1074.75 458.74 C 1079.56 462.18 1084.89 465.64 1086.58 466.44 C 1088.27 467.23 1090.29 468.65 1091.07 469.58 C 1091.84 470.51 1094.28 472.10 1096.49 473.10 C 1098.69 474.11 1102.97 476.68 1106.00 478.82 C 1113.33 484.00 1133.80 497.00 1134.63 497.00 C 1135.00 497.00 1137.14 498.47 1139.40 500.27 C 1141.65 502.07 1145.30 504.70 1147.50 506.11 C 1149.70 507.52 1152.79 509.54 1154.36 510.59 C 1157.26 512.53 1161.10 514.92 1174.22 522.97 C 1187.51 531.12 1200.47 539.85 1203.13 542.44 C 1204.58 543.85 1207.06 545.56 1208.63 546.25 C 1210.21 546.94 1214.20 549.30 1217.50 551.48 C 1220.80 553.67 1225.78 556.82 1228.57 558.48 C 1231.35 560.14 1236.08 563.19 1239.07 565.26 C 1251.03 573.54 1279.72 592.28 1283.12 594.04 C 1285.11 595.06 1288.17 597.11 1289.93 598.59 C 1293.85 601.89 1307.24 610.40 1311.99 612.61 C 1313.91 613.50 1316.76 615.30 1318.32 616.61 C 1319.88 617.93 1321.68 619.02 1322.33 619.04 C 1322.97 619.06 1325.06 620.41 1326.96 622.04 C 1328.87 623.67 1330.92 625.00 1331.52 625.00 C 1332.13 625.00 1334.99 627.02 1337.89 629.50 C 1340.79 631.98 1343.53 634.00 1343.97 634.00 C 1344.90 634.00 1354.86 640.73 1356.82 642.68 C 1357.55 643.41 1358.55 644.00 1359.05 644.00 C 1359.54 644.00 1364.73 647.26 1370.57 651.25 C 1376.42 655.24 1381.94 658.95 1382.85 659.50 C 1383.76 660.05 1386.59 661.96 1389.13 663.75 C 1391.68 665.54 1394.24 667.00 1394.81 667.00 C 1395.38 667.00 1397.88 668.55 1400.37 670.45 C 1402.86 672.35 1406.69 674.82 1408.88 675.94 C 1411.07 677.06 1413.14 678.42 1413.47 678.96 C 1413.81 679.50 1415.53 680.63 1417.29 681.48 C 1419.06 682.32 1422.82 684.76 1425.65 686.91 C 1428.48 689.06 1432.76 691.74 1435.15 692.86 C 1437.54 693.98 1441.30 696.21 1443.50 697.82 C 1445.70 699.43 1451.67 703.37 1456.78 706.58 C 1461.88 709.80 1466.72 713.46 1467.55 714.71 C 1468.37 715.97 1469.82 717.00 1470.77 717.01 C 1471.72 717.01 1473.69 717.80 1475.15 718.76 C 1476.61 719.71 1480.43 722.25 1483.65 724.40 C 1486.87 726.54 1492.65 730.33 1496.50 732.80 C 1500.35 735.28 1504.62 738.31 1506.00 739.54 C 1507.38 740.77 1509.62 742.10 1511.00 742.51 C 1512.38 742.91 1515.30 744.53 1517.50 746.12 C 1525.22 751.69 1544.55 764.26 1549.97 767.22 C 1552.98 768.87 1556.58 771.09 1557.97 772.15 C 1563.85 776.64 1576.18 785.00 1576.94 785.00 C 1577.39 785.00 1578.37 785.75 1579.13 786.66 C 1579.88 787.58 1582.43 789.18 1584.79 790.23 C 1587.15 791.27 1590.52 793.39 1592.29 794.93 C 1594.05 796.47 1597.30 798.64 1599.50 799.76 C 1601.70 800.87 1604.36 802.74 1605.40 803.89 C 1606.45 805.05 1607.74 806.00 1608.27 806.00 C 1608.80 806.00 1612.22 807.97 1615.87 810.37 C 1619.51 812.77 1623.57 815.29 1624.88 815.97 C 1626.18 816.65 1629.29 818.76 1631.78 820.66 C 1634.26 822.56 1638.15 825.05 1640.40 826.19 C 1642.66 827.33 1644.72 828.56 1645.00 828.92 C 1645.28 829.27 1647.75 831.00 1650.50 832.75 C 1653.25 834.51 1656.81 837.08 1658.41 838.47 C 1660.00 839.86 1661.88 841.00 1662.58 841.00 C 1663.28 841.00 1665.99 842.64 1668.62 844.64 C 1671.24 846.65 1675.22 849.11 1677.45 850.11 C 1679.68 851.11 1683.08 853.29 1685.00 854.96 C 1686.92 856.63 1689.01 858.00 1689.63 858.00 C 1690.25 858.00 1691.34 858.71 1692.06 859.57 C 1692.78 860.44 1694.97 862.03 1696.93 863.11 C 1700.35 865.00 1706.28 868.94 1708.61 870.89 C 1709.22 871.40 1711.69 872.81 1714.11 874.02 C 1716.52 875.23 1719.85 877.49 1721.50 879.06 C 1723.15 880.62 1726.08 882.56 1728.02 883.37 C 1729.96 884.17 1732.39 885.77 1733.43 886.92 C 1734.46 888.06 1735.74 889.00 1736.27 889.00 C 1737.50 889.00 1754.68 899.68 1758.00 902.51 C 1759.38 903.68 1763.42 906.45 1767.00 908.66 C 1770.58 910.88 1775.81 914.12 1778.64 915.88 C 1781.47 917.63 1784.90 920.11 1786.27 921.38 C 1787.64 922.65 1791.86 925.37 1795.63 927.44 C 1799.41 929.50 1803.62 932.22 1805.00 933.48 C 1806.38 934.74 1808.85 936.45 1810.50 937.28 C 1812.15 938.11 1814.39 939.77 1815.47 940.97 C 1817.26 942.94 1817.30 943.37 1815.97 945.75 C 1815.16 947.19 1812.38 949.52 1809.79 950.93 C 1807.20 952.35 1803.00 954.97 1800.46 956.77 C 1797.92 958.57 1794.19 960.95 1792.17 962.06 C 1788.18 964.26 1782.77 968.02 1779.30 971.00 C 1778.10 972.04 1775.62 973.66 1773.80 974.59 C 1771.99 975.53 1769.38 977.17 1768.00 978.24 C 1766.62 979.32 1760.33 983.49 1754.00 987.52 C 1747.67 991.55 1741.83 995.50 1741.00 996.29 C 1740.17 997.09 1737.99 998.51 1736.14 999.45 C 1731.81 1001.66 1720.45 1009.21 1716.24 1012.67 C 1714.45 1014.15 1711.08 1016.46 1708.74 1017.82 C 1706.41 1019.18 1703.77 1020.93 1702.87 1021.70 C 1701.97 1022.46 1699.68 1023.89 1697.78 1024.86 C 1695.88 1025.83 1693.69 1027.18 1692.91 1027.86 C 1690.56 1029.94 1663.92 1047.37 1660.08 1049.35 C 1658.11 1050.36 1655.38 1052.21 1654.00 1053.45 C 1652.62 1054.69 1650.70 1055.99 1649.72 1056.33 C 1648.74 1056.68 1645.14 1059.00 1641.72 1061.48 C 1638.30 1063.97 1630.33 1069.37 1624.00 1073.47 C 1617.67 1077.58 1609.17 1083.24 1605.09 1086.06 C 1601.01 1088.87 1596.59 1091.58 1595.26 1092.09 C 1593.94 1092.59 1590.72 1094.81 1588.11 1097.00 C 1585.50 1099.20 1583.05 1101.00 1582.67 1101.00 C 1582.28 1101.00 1580.06 1102.23 1577.73 1103.73 C 1575.40 1105.23 1572.73 1106.92 1571.79 1107.48 C 1570.28 1108.38 1560.61 1114.84 1541.69 1127.58 C 1538.49 1129.74 1534.61 1132.20 1533.07 1133.06 C 1531.53 1133.91 1528.36 1136.25 1526.03 1138.24 C 1523.70 1140.24 1520.18 1142.64 1518.21 1143.57 C 1516.24 1144.51 1513.72 1146.11 1512.62 1147.14 C 1511.52 1148.16 1510.04 1149.00 1509.32 1149.00 C 1508.60 1149.00 1506.81 1150.35 1505.34 1152.00 C 1503.87 1153.65 1502.13 1155.00 1501.47 1155.00 C 1500.82 1155.00 1498.62 1156.12 1496.60 1157.50 C 1494.57 1158.88 1492.09 1160.00 1491.08 1160.00 C 1486.70 1160.00 1486.70 1159.94 1486.92 1099.22 C 1487.04 1067.48 1486.82 1023.73 1486.44 1002.00 L 1485.75 962.50 L 1480.68 957.67 C 1477.88 955.01 1473.78 951.91 1471.55 950.77 C 1465.55 947.72 1443.88 933.28 1438.50 928.75 C 1436.71 927.24 1434.74 926.00 1434.13 926.00 C 1433.52 926.00 1431.85 924.69 1430.42 923.09 C 1428.99 921.48 1426.63 919.88 1425.16 919.51 C 1423.70 919.15 1419.45 916.64 1415.73 913.93 C 1412.00 911.22 1408.69 909.00 1408.37 909.00 C 1408.05 909.00 1405.96 907.55 1403.73 905.79 C 1401.50 904.02 1398.51 901.88 1397.09 901.04 C 1395.66 900.19 1392.98 898.60 1391.12 897.50 C 1389.27 896.40 1384.38 893.12 1380.27 890.22 C 1376.16 887.32 1371.38 884.34 1369.65 883.61 C 1367.92 882.88 1365.61 881.28 1364.52 880.06 C 1363.43 878.83 1361.16 877.26 1359.48 876.56 C 1357.80 875.85 1355.76 874.64 1354.96 873.85 C 1354.16 873.07 1350.35 870.40 1346.50 867.91 C 1342.65 865.42 1337.53 862.06 1335.11 860.44 C 1332.70 858.82 1329.33 856.75 1327.61 855.83 C 1321.02 852.29 1321.55 835.75 1321.00 1061.83 C 1320.53 1255.32 1320.40 1266.74 1318.74 1269.28 C 1317.76 1270.76 1315.20 1272.88 1313.04 1273.98 C 1310.88 1275.08 1306.54 1277.79 1303.39 1279.99 C 1300.24 1282.20 1297.17 1284.00 1296.56 1284.00 C 1295.95 1284.00 1293.82 1285.35 1291.83 1286.99 C 1289.83 1288.64 1286.01 1291.15 1283.35 1292.57 C 1275.73 1296.63 1267.75 1301.74 1264.72 1304.50 C 1263.19 1305.89 1259.82 1308.06 1257.22 1309.33 C 1254.62 1310.60 1250.88 1312.74 1248.91 1314.07 C 1246.93 1315.41 1243.42 1317.62 1241.10 1319.00 C 1237.09 1321.38 1229.68 1326.06 1216.50 1334.53 C 1213.20 1336.65 1208.13 1339.66 1205.23 1341.21 C 1202.34 1342.77 1197.85 1345.65 1195.27 1347.63 C 1192.68 1349.60 1189.61 1351.58 1188.44 1352.02 C 1187.28 1352.47 1183.26 1355.12 1179.52 1357.91 C 1175.78 1360.71 1171.88 1363.00 1170.85 1363.00 C 1169.83 1363.00 1167.98 1364.16 1166.74 1365.59 C 1165.51 1367.01 1163.15 1368.81 1161.50 1369.60 C 1159.85 1370.38 1157.05 1372.02 1155.29 1373.26 C 1148.75 1377.82 1143.20 1381.00 1141.78 1381.00 C 1140.98 1381.00 1139.80 1379.85 1139.16 1378.45 C 1138.29 1376.54 1138.00 1298.47 1137.99 1063.70 C 1137.98 891.99 1137.70 750.49 1137.37 749.26 C 1136.78 747.04 1130.35 741.80 1122.32 737.00 C 1120.03 735.62 1113.57 731.35 1107.97 727.50 C 1094.62 718.32 1092.52 716.96 1073.57 705.19 C 1068.87 702.27 1064.45 699.34 1063.76 698.68 C 1063.07 698.02 1059.12 695.28 1055.00 692.59 C 1050.88 689.90 1044.46 685.63 1040.74 683.10 C 1032.94 677.79 1026.73 673.74 1022.60 671.25 C 1021.01 670.29 1018.31 668.32 1016.60 666.89 C 1014.90 665.45 1012.06 663.54 1010.30 662.64 C 1008.53 661.73 1001.44 657.17 994.53 652.50 C 987.61 647.82 981.66 644.00 981.29 644.00 C 980.93 644.00 979.58 643.01 978.29 641.81 C 976.22 639.86 975.79 639.78 974.46 641.11 C 973.14 642.43 972.97 690.94 972.99 1061.10 C 973.01 1291.28 972.72 1481.78 972.35 1484.44 C 971.80 1488.44 971.18 1489.55 968.71 1490.89 C 967.07 1491.77 963.82 1493.92 961.49 1495.65 C 959.16 1497.38 955.06 1500.02 952.37 1501.51 C 949.69 1503.01 946.37 1504.97 945.00 1505.87 C 943.62 1506.76 941.71 1507.95 940.76 1508.50 C 939.80 1509.05 933.15 1513.33 925.98 1518.00 C 918.80 1522.67 911.02 1527.62 908.69 1529.00 C 899.58 1534.38 897.68 1535.60 894.15 1538.35 C 892.14 1539.92 888.02 1542.43 885.00 1543.92 C 876.79 1547.97 866.77 1553.90 864.44 1556.08 C 863.30 1557.13 861.94 1558.00 861.42 1558.00 C 860.90 1558.00 858.19 1559.54 855.39 1561.42 C 852.60 1563.30 848.78 1565.49 846.91 1566.28 C 845.03 1567.08 841.04 1569.59 838.03 1571.86 C 835.02 1574.14 831.89 1576.00 831.08 1576.00 C 830.27 1576.00 827.78 1577.20 825.55 1578.67 C 823.32 1580.14 819.70 1582.46 817.50 1583.83 C 815.30 1585.20 812.32 1587.11 810.88 1588.09 C 809.45 1589.06 806.59 1590.56 804.55 1591.42 C 802.50 1592.27 799.40 1594.17 797.66 1595.64 C 794.47 1598.34 785.46 1602.97 783.37 1602.99 C 782.75 1603.00 781.74 1602.39 781.12 1601.65Z"/></g>
<g fill="#56423FF7">
<path d="M 779.50 939.50 C 779.50 575.95 779.61 427.37 779.75 609.33 C 779.89 791.29 779.89 1088.74 779.75 1270.33 C 779.61 1451.92 779.50 1303.05 779.50 939.50Z"/></g>
</svg>
