<?xml version="1.0" encoding="utf-8"?>
<!DOCTYPE svg PUBLIC "-//W3C//DTD SVG 20010904//EN" "http://www.w3.org/TR/2001/REC-SVG-20010904/DTD/svg10.dtd">
<svg version="1.0" xmlns="http://www.w3.org/2000/svg" width="2002pt" height="349pt" viewBox="0 0 2002 349" preserveAspectRatio="xMidYMid meet">
<g fill="#BE0001FE">
<path d="M 1329.00 343.00 C 1317.91 342.34 1304.73 339.78 1300.21 337.42 C 1298.72 336.65 1296.95 336.01 1296.27 336.01 C 1294.25 336.00 1283.81 330.04 1279.14 326.24 C 1271.24 319.80 1267.11 314.62 1262.62 305.50 C 1257.33 294.77 1255.26 286.81 1253.97 272.30 C 1252.23 252.66 1255.97 231.22 1264.57 211.50 C 1265.29 209.85 1266.56 206.81 1267.39 204.75 C 1268.22 202.69 1269.48 201.01 1270.20 201.03 C 1270.91 201.04 1277.58 202.88 1285.00 205.10 C 1292.42 207.32 1300.30 209.58 1302.50 210.11 C 1310.77 212.11 1315.13 214.22 1314.48 215.90 C 1310.33 226.60 1305.56 242.99 1304.91 248.80 C 1303.66 259.92 1305.39 276.23 1308.50 282.59 C 1311.60 288.92 1318.45 295.44 1323.65 297.01 C 1335.27 300.52 1350.47 298.84 1357.03 293.32 C 1360.79 290.16 1365.00 283.77 1365.00 281.22 C 1365.00 280.22 1365.56 278.84 1366.25 278.15 C 1367.22 277.18 1367.61 258.34 1368.00 193.50 C 1368.32 139.91 1368.86 109.74 1369.50 109.10 C 1371.06 107.55 1417.63 107.45 1419.50 109.00 C 1420.77 110.05 1421.02 117.88 1421.24 163.87 L 1421.50 217.50 L 1577.39 217.75 C 1685.70 217.93 1733.68 217.68 1734.56 216.95 C 1735.51 216.16 1735.93 209.20 1736.21 189.20 C 1736.58 163.56 1736.70 162.13 1739.35 153.11 C 1743.36 139.47 1750.36 126.81 1756.74 121.67 C 1757.99 120.67 1759.63 119.23 1760.38 118.48 C 1761.94 116.91 1771.27 111.51 1775.00 110.01 C 1776.38 109.45 1778.22 108.59 1779.11 108.08 C 1779.99 107.58 1785.56 106.17 1791.48 104.96 C 1800.59 103.09 1804.36 102.83 1815.88 103.27 C 1823.37 103.56 1830.85 104.24 1832.50 104.79 C 1834.15 105.34 1838.65 106.80 1842.50 108.03 C 1846.35 109.27 1850.17 110.78 1851.00 111.40 C 1851.83 112.01 1854.69 113.64 1857.37 115.01 C 1860.04 116.38 1863.42 118.74 1864.86 120.25 C 1866.31 121.76 1867.94 123.03 1868.50 123.06 C 1869.74 123.13 1876.42 131.50 1880.72 138.37 C 1882.49 141.20 1885.36 147.33 1887.10 152.01 C 1889.99 159.77 1890.28 161.58 1890.38 173.00 C 1890.48 183.78 1890.17 186.46 1888.10 192.50 C 1885.85 199.06 1880.96 207.38 1876.11 212.90 C 1873.62 215.74 1873.53 216.37 1875.43 217.94 C 1876.51 218.84 1885.16 218.93 1911.18 218.31 L 1945.50 217.50 L 1945.80 186.00 C 1946.17 147.89 1944.64 130.19 1940.31 122.49 C 1938.35 118.99 1941.04 117.21 1957.13 111.38 C 1965.58 108.32 1975.28 104.73 1978.67 103.41 C 1982.06 102.08 1985.21 101.00 1985.67 101.01 C 1987.79 101.02 1995.00 115.11 1995.00 119.25 C 1995.00 120.54 1995.56 122.16 1996.25 122.85 C 1997.22 123.82 1997.57 139.39 1997.80 192.30 C 1997.96 229.81 1997.84 261.51 1997.53 262.75 L 1996.96 265.00 L 1709.23 265.25 L 1421.50 265.50 L 1420.81 269.00 C 1420.44 270.93 1419.62 276.51 1419.01 281.42 C 1417.77 291.30 1414.36 302.11 1410.49 308.39 C 1409.11 310.65 1407.41 313.40 1406.73 314.50 C 1406.06 315.60 1402.51 319.46 1398.84 323.08 C 1391.07 330.77 1377.06 338.34 1367.44 340.05 C 1364.17 340.63 1360.15 341.49 1358.50 341.96 C 1354.01 343.25 1340.83 343.71 1329.00 343.00ZM 1811.57 216.94 C 1819.71 215.50 1825.14 212.81 1830.24 207.70 C 1836.29 201.66 1838.50 194.10 1838.50 179.50 C 1838.49 164.01 1835.43 156.34 1826.89 150.43 C 1822.95 147.69 1822.05 147.50 1813.09 147.50 C 1807.81 147.50 1802.30 147.84 1800.83 148.25 C 1796.69 149.41 1792.24 153.69 1789.83 158.83 C 1787.79 163.18 1787.61 165.31 1787.22 189.88 C 1786.88 211.27 1787.06 216.42 1788.15 217.11 C 1790.04 218.31 1804.46 218.21 1811.57 216.94Z"/></g>
<g fill="#BE0001FE">
<path d="M 79.50 342.91 C 69.00 342.34 53.62 339.65 51.50 338.01 C 50.95 337.58 49.04 336.92 47.25 336.54 C 45.46 336.15 44.00 335.43 44.00 334.92 C 44.00 334.41 43.16 334.00 42.13 334.00 C 41.11 334.00 39.13 333.10 37.73 332.00 C 36.33 330.90 34.69 330.00 34.08 330.00 C 33.47 330.00 29.83 327.01 25.99 323.35 C 10.90 308.99 4.03 290.12 4.00 263.00 C 3.99 249.27 6.17 233.46 9.03 226.50 C 9.49 225.40 10.81 221.80 11.98 218.50 C 15.51 208.52 19.27 201.00 20.73 201.00 C 21.49 201.00 26.25 202.30 31.31 203.90 C 41.13 206.99 57.99 211.88 61.83 212.74 C 65.14 213.48 65.51 215.41 63.20 219.84 C 59.93 226.12 55.16 244.26 54.44 253.20 C 53.74 261.86 54.96 272.96 57.41 280.06 C 62.12 293.73 74.39 300.27 92.22 298.62 C 102.11 297.70 109.04 293.74 112.85 286.83 C 118.56 276.48 118.37 279.43 118.96 190.50 L 119.50 108.50 L 143.88 108.23 C 160.70 108.05 168.67 108.31 169.60 109.08 C 170.69 109.99 170.93 120.00 170.91 163.10 C 170.90 192.20 171.16 216.45 171.50 217.00 C 172.25 218.21 483.84 218.39 485.74 217.18 C 486.70 216.57 487.04 203.98 487.24 161.96 L 487.50 107.52 L 512.37 107.15 C 532.53 106.86 537.41 107.04 538.11 108.14 C 538.58 108.89 538.98 133.64 538.98 163.14 C 539.00 211.13 539.17 216.85 540.58 217.39 C 541.45 217.73 550.21 218.00 560.05 218.00 C 576.70 218.00 578.00 217.87 578.96 216.07 C 579.64 214.80 580.00 195.93 580.00 161.69 C 580.00 119.14 580.25 109.04 581.34 108.14 C 582.90 106.84 628.72 107.00 630.75 108.31 C 631.72 108.94 632.00 120.99 632.00 163.00 C 632.00 196.66 632.36 217.11 632.97 217.48 C 634.56 218.46 670.21 218.19 671.21 217.19 C 671.75 216.65 671.97 200.37 671.74 177.39 C 671.37 140.46 671.23 138.10 669.05 130.50 C 665.00 116.40 664.09 118.13 678.18 113.15 C 684.96 110.76 691.92 108.17 693.65 107.40 C 695.38 106.63 697.43 106.00 698.20 106.00 C 698.97 106.00 700.03 105.61 700.55 105.12 C 701.07 104.64 703.89 103.47 706.82 102.52 C 711.92 100.86 712.18 100.87 713.54 102.65 C 714.31 103.67 715.24 105.40 715.59 106.50 C 715.95 107.60 716.91 109.27 717.74 110.21 C 718.56 111.15 720.16 115.43 721.29 119.71 C 723.24 127.11 723.36 130.82 723.73 193.00 C 723.94 229.03 723.84 259.96 723.51 261.75 L 722.91 265.00 L 447.51 265.00 C 260.82 265.00 171.91 265.33 171.49 266.02 C 171.14 266.59 170.66 269.17 170.43 271.77 C 169.37 283.51 168.76 287.02 166.40 294.82 C 163.34 304.98 157.47 314.84 150.52 321.50 C 142.71 328.98 140.91 330.29 133.39 333.94 C 129.60 335.77 125.31 337.89 123.85 338.64 C 122.39 339.39 119.81 340.00 118.13 340.00 C 116.45 340.00 113.14 340.64 110.78 341.43 C 105.57 343.16 94.20 343.70 79.50 342.91Z"/></g>
<g fill="#BE0001FE">
<path d="M 818.50 344.84 C 804.82 341.57 793.50 337.34 790.20 334.25 C 789.46 333.56 788.46 333.00 787.96 333.00 C 785.57 333.00 772.99 318.91 769.22 312.00 C 764.61 303.55 760.33 291.49 759.83 285.50 L 759.50 281.50 L 785.49 281.50 L 811.48 281.50 L 813.99 287.74 C 817.26 295.86 821.16 299.69 828.06 301.53 C 841.81 305.19 855.33 301.15 860.01 291.98 C 864.04 284.09 866.55 266.37 863.75 265.59 C 863.06 265.40 854.85 264.46 845.50 263.51 C 836.15 262.55 826.70 261.19 824.50 260.48 C 822.30 259.76 818.94 258.86 817.03 258.46 C 815.13 258.07 812.88 257.41 812.03 256.99 C 805.81 253.93 801.05 252.00 799.72 252.00 C 798.87 252.00 798.02 251.66 797.83 251.25 C 797.65 250.84 795.48 249.15 793.00 247.50 C 790.52 245.85 787.94 243.97 787.26 243.33 C 786.57 242.68 785.00 241.33 783.76 240.33 C 775.68 233.78 768.17 220.42 763.92 205.03 C 760.80 193.71 760.85 171.94 764.02 159.00 C 768.15 142.16 776.72 128.43 789.50 118.22 C 791.67 116.49 802.81 110.00 803.63 109.99 C 804.11 109.99 805.76 109.33 807.29 108.53 C 808.83 107.73 811.75 106.79 813.79 106.43 C 815.83 106.08 819.43 105.16 821.78 104.40 C 826.69 102.80 850.03 102.53 856.50 103.99 C 858.70 104.49 862.75 105.37 865.50 105.94 C 868.25 106.52 871.40 107.39 872.50 107.89 C 880.45 111.46 886.00 114.45 886.00 115.16 C 886.00 115.62 886.66 116.00 887.47 116.00 C 888.27 116.00 892.02 119.11 895.78 122.92 C 902.66 129.86 907.56 137.63 910.36 146.01 C 914.86 159.50 915.18 162.05 915.71 189.50 C 916.07 207.92 916.60 216.73 917.37 217.23 C 919.16 218.40 981.78 218.17 982.51 216.99 C 982.85 216.43 983.11 209.12 983.09 200.74 C 983.01 177.62 985.10 155.38 987.98 148.50 C 993.02 136.47 999.28 126.24 1004.37 121.71 C 1012.86 114.16 1025.31 107.61 1034.50 105.87 C 1036.70 105.45 1040.97 104.59 1044.00 103.95 C 1051.97 102.27 1074.65 103.38 1083.50 105.89 C 1091.39 108.12 1096.79 110.06 1098.98 111.46 C 1099.80 111.98 1102.32 113.39 1104.59 114.60 C 1106.87 115.81 1110.25 118.21 1112.11 119.93 C 1113.98 121.65 1115.87 123.39 1116.32 123.78 C 1122.29 128.99 1131.43 144.42 1134.86 155.09 C 1137.85 164.38 1138.90 186.94 1136.90 198.92 C 1135.49 207.37 1133.97 211.95 1129.58 220.97 C 1125.47 229.43 1122.43 233.71 1116.07 240.05 C 1112.01 244.09 1101.73 252.00 1100.54 252.00 C 1100.29 252.00 1097.26 253.32 1093.79 254.94 C 1085.45 258.83 1075.00 261.55 1061.04 263.44 C 1051.64 264.72 1037.77 265.00 983.91 265.00 C 932.58 265.00 918.03 265.27 917.24 266.25 C 916.69 266.94 915.92 271.86 915.53 277.18 C 914.45 292.02 908.97 310.54 903.50 317.84 C 899.99 322.52 891.02 331.43 888.50 332.73 C 886.85 333.58 885.27 334.59 885.00 334.97 C 884.08 336.23 877.56 339.16 872.50 340.58 C 855.81 345.27 850.91 346.00 836.71 345.90 C 828.90 345.84 820.70 345.36 818.50 344.84ZM 864.50 190.96 C 864.50 161.41 863.95 158.24 857.74 152.24 C 852.79 147.46 840.77 145.60 830.37 148.00 C 825.75 149.07 819.61 153.98 817.26 158.48 C 811.33 169.88 811.81 192.78 818.20 203.17 C 821.32 208.24 828.23 214.00 831.20 214.00 C 832.19 214.00 833.00 214.41 833.00 214.91 C 833.00 216.67 855.50 219.08 861.50 217.97 L 864.50 217.42 L 864.50 190.96ZM 1068.60 213.95 C 1077.79 209.48 1085.00 200.38 1085.00 193.27 C 1085.00 191.65 1085.51 187.82 1086.12 184.74 C 1087.03 180.21 1086.94 177.48 1085.61 170.33 C 1082.81 155.22 1076.40 148.52 1063.61 147.33 C 1056.06 146.62 1045.81 148.35 1042.86 150.81 C 1039.80 153.38 1036.26 160.03 1035.59 164.50 C 1034.31 172.94 1034.08 215.39 1035.30 216.87 C 1036.26 218.02 1038.90 218.17 1049.36 217.67 C 1061.05 217.11 1062.81 216.77 1068.60 213.95Z"/></g>
<g fill="#BE0001FE">
<path d="M 1313.23 77.17 C 1312.25 76.55 1312.02 71.90 1312.23 57.43 L 1312.50 38.50 L 1333.50 38.50 L 1354.50 38.50 L 1354.50 58.00 L 1354.50 77.50 L 1334.50 77.75 C 1323.50 77.88 1313.93 77.62 1313.23 77.17Z"/></g>
<g fill="#BE0001FE">
<path d="M 63.33 77.38 C 62.05 76.84 61.40 45.23 62.58 40.54 L 63.23 37.96 L 83.86 38.23 L 104.50 38.50 L 104.50 58.00 L 104.50 77.50 L 84.50 77.68 C 73.50 77.78 63.97 77.64 63.33 77.38Z"/></g>
<g fill="#BE0001FE">
<path d="M 1898.25 330.29 C 1896.09 329.88 1896.00 329.45 1896.00 319.58 C 1896.00 313.93 1896.29 305.85 1896.65 301.63 L 1897.30 293.96 L 1916.40 294.23 L 1935.50 294.50 L 1935.77 312.13 C 1936.04 329.72 1936.04 329.76 1933.77 330.36 C 1931.26 331.04 1901.81 330.98 1898.25 330.29Z"/></g>
<g fill="#BE0001FE">
<path d="M 1959.29 330.20 C 1958.43 329.66 1958.05 324.39 1957.95 311.97 L 1957.82 294.50 L 1977.16 294.50 L 1996.50 294.50 L 1996.77 311.93 C 1996.98 325.20 1996.74 329.54 1995.77 330.16 C 1994.15 331.19 1960.91 331.23 1959.29 330.20Z"/></g>
<g fill="#BE0001FE">
<path d="M 617.00 66.48 L 617.00 48.96 L 634.93 49.07 C 649.80 49.17 652.96 49.44 653.43 50.68 C 653.74 51.49 654.00 59.33 654.00 68.08 L 654.00 84.00 L 635.50 84.00 L 617.00 84.00 L 617.00 66.48Z"/></g>
<g fill="#BE0001FE">
<path d="M 559.69 83.36 C 559.31 82.98 559.00 75.53 559.00 66.81 L 559.00 50.95 L 561.57 49.98 C 565.08 48.64 588.96 48.74 592.88 50.11 L 596.05 51.21 L 595.77 67.36 L 595.50 83.50 L 577.94 83.77 C 568.28 83.92 560.07 83.73 559.69 83.36Z"/></g>
<g fill="#BE0001FE">
<path d="M 589.75 38.31 C 588.18 37.90 588.00 36.28 588.00 22.51 C 588.00 14.07 588.27 6.45 588.61 5.58 C 589.13 4.22 591.66 4.00 606.50 4.00 C 621.34 4.00 623.87 4.22 624.39 5.58 C 624.73 6.45 625.00 14.04 625.00 22.45 L 625.00 37.74 L 617.25 38.35 C 608.53 39.03 592.41 39.00 589.75 38.31Z"/></g>
<g fill="#BE3546F0">
<path d="M 171.67 217.33 C 171.30 216.97 171.00 216.20 171.00 215.63 C 171.00 215.01 171.48 215.08 172.20 215.80 C 173.94 217.54 484.06 217.54 485.80 215.80 C 486.60 215.00 487.00 214.96 487.00 215.69 C 487.00 216.29 486.29 217.06 485.42 217.39 C 483.25 218.23 172.50 218.17 171.67 217.33Z"/></g>
<g fill="#BE3546F0">
<path d="M 1421.67 217.33 C 1421.30 216.97 1421.01 216.18 1421.02 215.58 C 1421.02 214.94 1421.35 215.00 1421.82 215.75 C 1422.45 216.73 1455.33 217.05 1578.56 217.25 L 1734.50 217.51 L 1578.42 217.75 C 1492.57 217.89 1422.03 217.70 1421.67 217.33Z"/></g>
<g fill="#BE3546F0">
<path d="M 118.49 185.50 L 118.50 107.50 L 144.42 107.50 C 164.62 107.50 170.39 107.78 170.59 108.77 C 170.73 109.48 170.62 109.59 170.34 109.03 C 170.01 108.37 160.78 108.00 144.42 108.00 L 119.01 108.00 L 118.75 185.75 L 118.48 263.50 L 118.49 185.50Z"/></g>
</svg>
